<?xml version="1.0" encoding="iso-8859-1"?>
<!-- Generator: Adobe Illustrator 18.0.0, SVG Export Plug-In . SVG Version: 6.00 Build 0)  -->
<!DOCTYPE svg PUBLIC "-//W3C//DTD SVG 1.1//EN" "http://www.w3.org/Graphics/SVG/1.1/DTD/svg11.dtd">
<svg version="1.1" id="Capa_1" xmlns="http://www.w3.org/2000/svg" xmlns:xlink="http://www.w3.org/1999/xlink" x="0px" y="0px"
	 viewBox="0 0 493.988 493.988" style="enable-background:new 0 0 493.988 493.988;" xml:space="preserve">
<g>
	<path d="M246.985,58.974c-3.273,0-6.562,0.76-9.496,2.213L122.323,117.72c-8.152,3.979-12.957,12.777-11.893,21.805l12.357,107.398
		h124.197V434.5c6.058,0,12.134-2.316,16.245-6.994l95.953-109.621c2.917-3.322,4.703-7.367,5.191-11.701l6.847-59.275H246.985
		V58.974z"/>
	<path d="M397.699,64.634L282.535,8.093c-21.967-10.791-49.124-10.791-71.086,0L96.264,64.634
		c-30.572,15.02-48.477,47.797-44.563,81.66l19.147,166.625c1.887,16.324,8.607,31.525,19.471,43.916l95.953,109.609
		c15.358,17.52,37.455,27.543,60.713,27.543c23.252,0,45.363-10.023,60.723-27.543l95.959-109.609
		c10.861-12.391,17.582-27.592,19.447-43.916l19.181-166.625C446.176,112.431,428.276,79.654,397.699,64.634z M403.13,141.763
		l-19.177,166.643c-0.95,8.365-4.368,16.135-9.94,22.451l-95.975,109.621c-15.65,17.922-46.447,17.922-62.096,0l-95.953-109.621
		c-5.596-6.316-9.012-14.086-9.977-22.451L90.85,141.763c-2-17.289,7.17-34.051,22.784-41.758l115.151-56.533
		c5.66-2.752,11.945-4.205,18.199-4.205s12.555,1.453,18.191,4.205l115.152,56.533C395.975,107.712,405.131,124.474,403.13,141.763z
		"/>
</g>
<g>
</g>
<g>
</g>
<g>
</g>
<g>
</g>
<g>
</g>
<g>
</g>
<g>
</g>
<g>
</g>
<g>
</g>
<g>
</g>
<g>
</g>
<g>
</g>
<g>
</g>
<g>
</g>
<g>
</g>
</svg>
