<?xml version="1.0" encoding="iso-8859-1"?>
<!-- Generator: Adobe Illustrator 19.0.0, SVG Export Plug-In . SVG Version: 6.00 Build 0)  -->
<svg version="1.1" id="Capa_1" xmlns="http://www.w3.org/2000/svg" xmlns:xlink="http://www.w3.org/1999/xlink" x="0px" y="0px"
	 viewBox="0 0 512 512" style="enable-background:new 0 0 512 512;" xml:space="preserve">
<g>
	<g>
		<path d="M480,85.333H32c-17.673,0-32,14.327-32,32V224c0,17.673,14.327,32,32,32h192v-21.333H32
			c-5.891,0-10.667-4.776-10.667-10.667V117.333c0-5.891,4.776-10.667,10.667-10.667h448c5.891,0,10.667,4.776,10.667,10.667V224
			c0,5.891-4.776,10.667-10.667,10.667V256c17.673,0,32-14.327,32-32V117.333C512,99.66,497.673,85.333,480,85.333z"/>
	</g>
</g>
<g>
	<g>
		<path d="M32,426.667c-5.891,0-10.667-4.776-10.667-10.667V309.333c0-5.891,4.776-10.667,10.667-10.667h170.667v-21.333H32
			c-17.673,0-32,14.327-32,32V416c0,17.673,14.327,32,32,32h181.333v-21.333H32z"/>
	</g>
</g>
<g>
	<g>
		<path d="M74.667,490.667v-21.333H53.333v32C53.333,507.224,58.109,512,64,512h202.667v-21.333H74.667z"/>
	</g>
</g>
<g>
	<g>
		<rect x="42.667" y="245.333" width="21.333" height="42.667"/>
	</g>
</g>
<g>
	<g>
		<path d="M458.667,42.667h-32v-32C426.667,4.776,421.891,0,416,0H96c-5.891,0-10.667,4.776-10.667,10.667v32h-32
			c-5.891,0-10.667,4.776-10.667,10.667V96c0,5.891,4.776,10.667,10.667,10.667h405.333c5.891,0,10.667-4.776,10.667-10.667V53.333
			C469.333,47.442,464.558,42.667,458.667,42.667z M448,85.333H64V64h32c5.891,0,10.667-4.776,10.667-10.667v-32h298.667v32
			C405.333,59.224,410.109,64,416,64h32V85.333z"/>
	</g>
</g>
<g>
	<g>
		<rect x="128" y="42.667" width="256" height="21.333"/>
	</g>
</g>
<g>
	<g>
		<rect x="53.333" y="128" width="21.333" height="85.333"/>
	</g>
</g>
<g>
	<g>
		<rect x="96" y="128" width="21.333" height="42.667"/>
	</g>
</g>
<g>
	<g>
		<rect x="138.667" y="128" width="21.333" height="42.667"/>
	</g>
</g>
<g>
	<g>
		<rect x="96" y="192" width="21.333" height="21.333"/>
	</g>
</g>
<g>
	<g>
		<rect x="138.667" y="192" width="21.333" height="21.333"/>
	</g>
</g>
<g>
	<g>
		<path d="M448,128H192c-5.891,0-10.667,4.776-10.667,10.667v64c0,5.891,4.776,10.667,10.667,10.667h106.667V192h-96v-42.667
			h234.667V192H416v21.333h32c5.891,0,10.667-4.776,10.667-10.667v-64C458.667,132.776,453.891,128,448,128z"/>
	</g>
</g>
<g>
	<g>
		<path d="M192,341.333V320H64c-5.891,0-10.667,4.776-10.667,10.667v64c0,5.891,4.776,10.667,10.667,10.667h128V384H74.667v-42.667
			H192z"/>
	</g>
</g>
<g>
	<g>
		<path d="M362.667,213.333c-82.475,0-149.333,66.859-149.333,149.333S280.192,512,362.667,512
			c82.438-0.088,149.245-66.895,149.333-149.333C512,280.192,445.141,213.333,362.667,213.333z M362.667,490.667
			c-70.692,0-128-57.308-128-128s57.308-128,128-128c70.661,0.076,127.924,57.339,128,128
			C490.667,433.359,433.359,490.667,362.667,490.667z"/>
	</g>
</g>
<g>
	<g>
		<path d="M397.792,344.459l-35.125,35.125l-35.125-35.125l-15.083,15.083l42.667,42.667c2,2.001,4.713,3.125,7.541,3.125
			c2.829-0.001,5.541-1.125,7.541-3.125l42.667-42.667L397.792,344.459z"/>
	</g>
</g>
<g>
	<g>
		<rect x="352" y="277.333" width="21.333" height="117.333"/>
	</g>
</g>
<g>
	<g>
		<path d="M416,405.333v21.333H309.333v-21.333H288v21.333c-0.006,0.295-0.006,0.589,0,0.884
			c0.244,11.538,9.795,20.693,21.333,20.449H416c0.295,0.006,0.589,0.006,0.884,0c11.538-0.244,20.693-9.795,20.449-21.333v-21.333
			H416z"/>
	</g>
</g>
<g>
</g>
<g>
</g>
<g>
</g>
<g>
</g>
<g>
</g>
<g>
</g>
<g>
</g>
<g>
</g>
<g>
</g>
<g>
</g>
<g>
</g>
<g>
</g>
<g>
</g>
<g>
</g>
<g>
</g>
</svg>
