<?xml version="1.0" encoding="iso-8859-1"?>
<!-- Generator: Adobe Illustrator 19.0.0, SVG Export Plug-In . SVG Version: 6.00 Build 0)  -->
<svg version="1.1" id="Capa_1" xmlns="http://www.w3.org/2000/svg" xmlns:xlink="http://www.w3.org/1999/xlink" x="0px" y="0px"
	 viewBox="0 0 512.002 512.002" style="enable-background:new 0 0 512.002 512.002;" xml:space="preserve">
<g>
	<g>
		<path d="M422.502,161c-5.723,0-11.365,0.532-16.894,1.59c2.022-9.319,3.042-18.855,3.042-28.516
			C408.649,60.146,348.504,0,274.575,0c-73.252,0-132.972,59.047-134.059,132.045c-10.854-3.611-22.305-5.484-33.795-5.484
			C47.874,126.561,0,174.435,0,233.279C0,292.125,47.874,340,106.721,340h19.839c1.481,63.307,31.316,105.49,56.457,129.913
			c28.27,27.463,60.551,42.089,72.984,42.089c12.434,0,44.714-14.626,72.984-42.089c25.141-24.423,54.976-66.606,56.457-129.913
			h37.06c49.351,0,89.5-40.149,89.5-89.5C512.002,201.15,471.853,161,422.502,161z M315.475,455.154
			c-27.289,26.688-54.824,36.678-59.474,36.848c-4.649-0.17-32.184-10.16-59.474-36.848
			c-22.828-22.324-50.039-61.277-50.039-120.072v-55.238c38.457-11.059,74.41-26.257,109.516-46.294
			c34.292,19.521,71.893,35.412,109.509,46.287v55.245h0.001C365.514,393.877,338.303,432.83,315.475,455.154z M422.502,320h-36.988
			v-47.744c0-4.514-3.023-8.468-7.379-9.65c-40.242-10.93-80.729-27.954-117.082-49.233c-3.121-1.826-6.983-1.826-10.103,0
			c-37.397,21.889-75.695,37.993-117.083,49.233c-4.355,1.183-7.379,5.137-7.379,9.65V320H106.72C58.903,320,20,281.098,20,233.279
			c0-47.816,38.903-86.719,86.721-86.719c14.066,0,27.485,3.263,39.885,9.698c3.268,1.696,7.206,1.459,10.246-0.617
			c3.041-2.077,4.695-5.657,4.305-9.318c-0.435-4.076-0.655-8.197-0.655-12.249C160.501,71.174,211.674,20,274.575,20
			s114.074,51.174,114.074,114.074c0,13.761-2.427,27.217-7.213,39.996c-1.408,3.76-0.432,7.997,2.48,10.761
			c2.913,2.764,7.196,3.521,10.875,1.916c8.764-3.814,18.087-5.747,27.711-5.747c38.322,0,69.5,31.178,69.5,69.5
			C492.002,288.822,460.824,320,422.502,320z"/>
	</g>
</g>
<g>
	<g>
		<path d="M182.501,123.654c-5.523,0-10,4.478-10,10v0.42c0,5.522,4.477,10,10,10c5.523,0,10-4.478,10-10v-0.42
			C192.501,128.132,188.024,123.654,182.501,123.654z"/>
	</g>
</g>
<g>
	<g>
		<path d="M238.572,48.712c-2.687-4.823-8.777-6.558-13.602-3.871c-23.081,12.853-40.092,33.782-47.897,58.935
			c-1.637,5.275,1.313,10.878,6.587,12.515c0.987,0.307,1.985,0.452,2.967,0.452c4.266,0,8.217-2.752,9.548-7.039
			c6.274-20.22,19.956-37.05,38.525-47.389C239.525,59.627,241.259,53.539,238.572,48.712z"/>
	</g>
</g>
<g>
	<g>
		<path d="M323.531,311.445c-4.898-4.898-11.428-7.596-18.385-7.596c-6.958,0-13.487,2.697-18.385,7.596l-45.962,45.962
			l-15.558-15.559c-4.898-4.897-11.428-7.594-18.385-7.594c-6.958,0-13.486,2.697-18.384,7.595s-7.596,11.428-7.596,18.386
			c0,6.958,2.698,13.487,7.596,18.386l33.942,33.941c4.899,4.898,11.428,7.596,18.385,7.596c6.957,0,13.486-2.697,18.385-7.596
			l64.348-64.349c4.897-4.898,7.595-11.428,7.594-18.385C331.126,322.87,328.428,316.341,323.531,311.445z M309.389,334.071
			l-64.348,64.348c-1.121,1.121-2.627,1.738-4.242,1.738s-3.123-0.617-4.243-1.738l-33.941-33.941
			c-1.121-1.121-1.738-2.628-1.738-4.243s0.617-3.122,1.738-4.243c1.12-1.12,2.626-1.737,4.242-1.737
			c1.616,0,3.123,0.617,4.244,1.737l22.627,22.629c1.875,1.875,4.419,2.929,7.071,2.929c2.652,0,5.196-1.054,7.071-2.929
			l53.034-53.033c1.121-1.121,2.628-1.738,4.243-1.738s3.122,0.617,4.244,1.738c1.12,1.12,1.736,2.626,1.736,4.241
			C311.126,331.444,310.509,332.951,309.389,334.071z"/>
	</g>
</g>
<g>
</g>
<g>
</g>
<g>
</g>
<g>
</g>
<g>
</g>
<g>
</g>
<g>
</g>
<g>
</g>
<g>
</g>
<g>
</g>
<g>
</g>
<g>
</g>
<g>
</g>
<g>
</g>
<g>
</g>
</svg>
