<?xml version="1.0" encoding="iso-8859-1"?>
<!-- Generator: Adobe Illustrator 19.0.0, SVG Export Plug-In . SVG Version: 6.00 Build 0)  -->
<svg version="1.1" id="Capa_1" xmlns="http://www.w3.org/2000/svg" xmlns:xlink="http://www.w3.org/1999/xlink" x="0px" y="0px"
	 viewBox="0 0 496.989 496.989" style="enable-background:new 0 0 496.989 496.989;" xml:space="preserve">
<g>
	<g>
		<path d="M484.993,339.711c-8.976-5.176-19.888-3.808-27.408,2.504l-52.968-32.032c2.816-6.68,4.376-14,4.376-21.688
			c0-28.04-20.712-51.336-48-55.36c0-0.216,0-0.424,0-0.64c0-8.744-1.464-17.144-4.064-25.032l100.408-52.976
			c4.4,3.816,9.952,6,15.696,6c4.072,0,8.192-1.032,11.96-3.208c11.464-6.616,15.4-21.328,8.784-32.792
			c-6.624-11.456-21.336-15.4-32.784-8.784c-8.936,5.16-13.216,15.24-11.568,24.864l-99.048,52.256
			c-13.808-24.048-39.712-40.328-69.384-40.328c-8.28,0-16.336,1.368-24,3.784V47.023c9.288-3.312,16-12.112,16-22.528
			c0-13.232-10.768-24-24-24c-13.232,0-24,10.768-24,24c0,10.416,6.712,19.216,16,22.528v116.312
			c-8.536,4.952-16.224,11.4-22.52,19.312c-7.864-4.04-16.536-6.152-25.48-6.152c-17.584,0-33.28,8.16-43.552,20.872L47.529,140.719
			c1.72-9.672-2.552-19.824-11.536-25.008c-11.464-6.616-26.168-2.68-32.784,8.784s-2.672,26.168,8.784,32.784
			c3.768,2.176,7.888,3.208,11.96,3.208c5.688,0,11.2-2.152,15.584-5.904l101.72,56.544c-2.736,6.584-4.264,13.8-4.264,21.368
			c0,0.192,0,0.376,0,0.568c-27.104,3.888-48,27.264-48,55.432c0,7.664,1.552,14.968,4.352,21.632l-53.904,32.12
			c-7.512-6.344-18.448-7.728-27.44-2.528c-11.464,6.616-15.4,21.328-8.784,32.784c4.44,7.68,12.52,11.992,20.816,11.992
			c4.072,0,8.192-1.032,11.96-3.208c9.048-5.224,13.312-15.48,11.488-25.208l54.112-32.24c10.28,12.592,25.912,20.656,43.4,20.656
			h96v105.472c-9.288,3.312-16,12.112-16,22.528c0,13.232,10.768,24,24,24c13.232,0,24-10.768,24-24
			c0-10.416-6.712-19.216-16-22.528V344.495h96c17.472,0,33.08-8.048,43.36-20.616l53.16,32.152
			c-1.84,9.744,2.416,20.024,11.48,25.256c3.768,2.176,7.888,3.208,11.96,3.208c8.304,0,16.384-4.304,20.832-11.992
			C500.393,361.031,496.449,346.327,484.993,339.711z M468.993,129.567c1.256-0.728,2.624-1.072,3.984-1.072
			c2.768,0,5.464,1.432,6.944,4c2.208,3.824,0.888,8.72-2.928,10.928c-3.824,2.192-8.72,0.896-10.928-2.928
			C463.857,136.671,465.169,131.775,468.993,129.567z M30.929,140.495c-2.216,3.824-7.128,5.128-10.936,2.928
			c-3.816-2.208-5.128-7.104-2.92-10.928c1.472-2.56,4.168-4,6.936-4c1.36,0,2.728,0.344,3.992,1.072
			C31.817,131.775,33.137,136.671,30.929,140.495z M27.993,367.423c-3.824,2.2-8.72,0.888-10.92-2.928
			c-2.208-3.824-0.896-8.72,2.928-10.928c1.256-0.728,2.624-1.072,3.984-1.072c2.768,0,5.464,1.432,6.944,4
			C33.137,360.319,31.817,365.215,27.993,367.423z M248.993,16.495c4.408,0,8,3.592,8,8s-3.592,8-8,8c-4.408,0-8-3.592-8-8
			S244.585,16.495,248.993,16.495z M248.993,480.495c-4.408,0-8-3.592-8-8c0-4.408,3.592-8,8-8s8,3.592,8,8
			C256.993,476.903,253.401,480.495,248.993,480.495z M352.993,328.495h-208c-22.056,0-40-17.944-40-40
			c0-22.056,17.944-40,39.768-40.008l10.464,0.192l-1.616-9.496c-0.416-2.416-0.616-4.608-0.616-6.688c0-22.056,17.944-40,40-40
			c8.28,0,16.24,2.536,23.032,7.336l6.792,4.8l4.536-6.968c11.88-18.264,31.936-29.168,53.64-29.168c35.288,0,64,28.712,64,64
			c0,2.416-0.168,4.792-0.424,7.144l-0.512,8.856h8.936c22.056,0,40,17.944,40,40C392.993,310.551,375.049,328.495,352.993,328.495z
			 M479.922,364.495c-2.216,3.824-7.12,5.128-10.936,2.928c-3.824-2.2-5.136-7.104-2.928-10.928c1.48-2.56,4.168-4,6.936-4
			c1.36,0,2.728,0.344,3.992,1.072C480.81,355.775,482.129,360.671,479.922,364.495z"/>
	</g>
</g>
<g>
	<g>
		<path d="M280.993,184.495v16c17.648,0,32,14.352,32,32h16C328.993,206.023,307.465,184.495,280.993,184.495z"/>
	</g>
</g>
<g>
	<g>
		<path d="M352.993,264.495v16c4.408,0,8,3.592,8,8c0,4.408-3.592,8-8,8v16c13.232,0,24-10.768,24-24
			S366.225,264.495,352.993,264.495z"/>
	</g>
</g>
<g>
	<g>
		<rect x="320.993" y="296.495" width="16" height="16"/>
	</g>
</g>
<g>
	<g>
		<rect x="184.993" y="296.495" width="72" height="16"/>
	</g>
</g>
<g>
	<g>
		<rect x="152.993" y="296.495" width="16" height="16"/>
	</g>
</g>
<g>
</g>
<g>
</g>
<g>
</g>
<g>
</g>
<g>
</g>
<g>
</g>
<g>
</g>
<g>
</g>
<g>
</g>
<g>
</g>
<g>
</g>
<g>
</g>
<g>
</g>
<g>
</g>
<g>
</g>
</svg>
