<?xml version="1.0" encoding="iso-8859-1"?>
<!-- Generator: Adobe Illustrator 16.0.0, SVG Export Plug-In . SVG Version: 6.00 Build 0)  -->
<!DOCTYPE svg PUBLIC "-//W3C//DTD SVG 1.1//EN" "http://www.w3.org/Graphics/SVG/1.1/DTD/svg11.dtd">
<svg version="1.1" id="Capa_1" xmlns="http://www.w3.org/2000/svg" xmlns:xlink="http://www.w3.org/1999/xlink" x="0px" y="0px"
	 width="162.586px" height="162.587px" viewBox="0 0 162.586 162.587" style="enable-background:new 0 0 162.586 162.587;"
	 xml:space="preserve">
<g>
	<g>
		<g>
			<path d="M144.191,37.99v7.551l12.787,2.344c2.497,0.454,4.104,2.682,3.605,4.962c-0.427,2.001-2.357,3.392-4.5,3.392
				c-0.299,0-0.604-0.024-0.907-0.088l-10.991-2.013v3.075l12.623,1.888c2.509,0.368,4.213,2.545,3.799,4.844
				c-0.365,2.07-2.325,3.544-4.536,3.544c-0.249,0-0.499-0.018-0.743-0.058l-11.148-1.666v2.908l12.556,1.671
				c2.503,0.329,4.25,2.475,3.885,4.795c-0.335,2.095-2.302,3.602-4.543,3.602c-0.225,0-0.444-0.019-0.676-0.043l-11.216-1.498
				v3.044l12.422,1.333c2.515,0.274,4.329,2.363,4.037,4.683c-0.28,2.148-2.277,3.732-4.567,3.732c-0.176,0-0.365-0.013-0.548-0.037
				l-11.344-1.218v53.896h18.401V41.376L144.191,37.99z M152.363,103.257c-2.107,0-3.83-1.57-3.83-3.514
				c0-1.941,1.723-3.513,3.83-3.513c2.119,0,3.836,1.571,3.836,3.513C156.199,101.687,154.482,103.257,152.363,103.257z"/>
		</g>
		<g>
			<path d="M119.639,33.274v7.889l12.8,2.451c2.496,0.481,4.104,2.807,3.604,5.194c-0.438,2.089-2.362,3.541-4.506,3.541
				c-0.305,0-0.608-0.03-0.913-0.088l-10.985-2.101v3.212l12.623,1.97c2.509,0.387,4.22,2.658,3.806,5.062
				c-0.365,2.165-2.319,3.706-4.542,3.706c-0.244,0-0.487-0.018-0.743-0.064l-11.144-1.738v3.035l12.55,1.754
				c2.516,0.35,4.257,2.588,3.892,5.005c-0.341,2.195-2.302,3.767-4.543,3.767c-0.219,0-0.438-0.012-0.67-0.043l-11.229-1.559v3.179
				l12.435,1.397c2.515,0.286,4.317,2.475,4.024,4.904c-0.273,2.235-2.265,3.897-4.561,3.897c-0.183,0-0.359-0.013-0.548-0.036
				l-11.351-1.279v56.324h18.414V36.806L119.639,33.274z M127.824,101.491c-2.113,0-3.837-1.645-3.837-3.678
				c0-2.027,1.724-3.678,3.837-3.678c2.119,0,3.836,1.65,3.836,3.678C131.66,99.847,129.943,101.491,127.824,101.491z"/>
		</g>
		<g>
			<g>
				<polygon points="0,142.642 49.084,142.642 49.084,19.933 0,44.476 				"/>
			</g>
			<g>
				<path d="M52.153,19.933v8.409c0.305,0,0.597-0.067,0.904,0L107.9,39.306c2.484,0.499,4.104,2.923,3.604,5.416
					c-0.438,2.189-2.362,3.699-4.512,3.699c-0.293,0-0.604-0.03-0.907-0.094L52.153,37.546v5.088c0.244,0,0.484-0.062,0.734-0.019
					l54.83,8.936c2.521,0.405,4.226,2.774,3.812,5.282c-0.371,2.256-2.313,3.867-4.543,3.867c-0.243,0-0.493-0.021-0.742-0.064
					l-54.096-8.811v4.052c0.222-0.006,0.435-0.073,0.661-0.042l54.836,7.977c2.509,0.359,4.256,2.704,3.896,5.219
					c-0.341,2.286-2.301,3.934-4.555,3.934c-0.219,0-0.438-0.019-0.669-0.049l-54.169-7.883v4.64
					c0.18-0.009,0.353-0.076,0.536-0.058l54.839,6.442c2.521,0.299,4.323,2.588,4.031,5.112c-0.28,2.335-2.259,4.064-4.567,4.064
					c-0.176,0-0.353-0.013-0.535-0.031L52.147,78.83v63.812h61.36V32.203L52.153,19.933z M103.272,99.701
					c-2.106,0-3.83-1.724-3.83-3.837c0-2.112,1.724-3.836,3.83-3.836c2.125,0,3.836,1.724,3.836,3.836
					C107.108,97.978,105.397,99.701,103.272,99.701z"/>
			</g>
		</g>
	</g>
</g>
<g>
</g>
<g>
</g>
<g>
</g>
<g>
</g>
<g>
</g>
<g>
</g>
<g>
</g>
<g>
</g>
<g>
</g>
<g>
</g>
<g>
</g>
<g>
</g>
<g>
</g>
<g>
</g>
<g>
</g>
</svg>
