<?xml version="1.0" encoding="iso-8859-1"?>
<!-- Generator: Adobe Illustrator 19.0.0, SVG Export Plug-In . SVG Version: 6.00 Build 0)  -->
<svg version="1.1" id="Capa_1" xmlns="http://www.w3.org/2000/svg" xmlns:xlink="http://www.w3.org/1999/xlink" x="0px" y="0px"
	 viewBox="0 0 512 512" style="enable-background:new 0 0 512 512;" xml:space="preserve">
<g>
	<g>
		<rect x="32.061" y="337.05" width="15.996" height="14.996"/>
	</g>
</g>
<g>
	<g>
		<rect x="32.061" y="401.033" width="15.996" height="14.996"/>
	</g>
</g>
<g id="SVGCleanerId_0">
	<g>
		<rect x="64.052" y="401.033" width="15.996" height="14.996"/>
	</g>
</g>
<g>
	<g>
		<rect x="32.061" y="465.016" width="15.996" height="14.996"/>
	</g>
</g>
<g>
	<g>
		<rect x="64.052" y="337.05" width="15.996" height="14.996"/>
	</g>
</g>
<g>
	<g>
		<rect x="64.052" y="401.033" width="15.996" height="14.996"/>
	</g>
</g>
<g>
	<g>
		<rect x="64.052" y="465.016" width="15.996" height="14.996"/>
	</g>
</g>
<g>
	<g>
		<rect x="168.025" y="337.05" width="15.996" height="14.996"/>
	</g>
</g>
<g>
	<g>
		<rect x="168.025" y="401.033" width="15.996" height="14.996"/>
	</g>
</g>
<g>
	<g>
		<rect x="168.025" y="465.016" width="15.996" height="14.996"/>
	</g>
</g>
<g>
	<g>
		<rect x="96.044" y="337.05" width="55.985" height="14.996"/>
	</g>
</g>
<g>
	<g>
		<rect x="96.044" y="401.033" width="55.985" height="14.996"/>
	</g>
</g>
<g>
	<g>
		<path d="M64.051,305.055L64.051,305.055v14.996h136.463v48.987H15.564v-48.987h32.491v-14.996H0.568v63.983v14.996v48.987v14.996
			V512h151.459v-14.996H15.564v-48.987h184.951v48.987h-32.491V512h47.487v-63.983v-14.996v-48.987v-14.996v-63.983H64.051z
			 M200.515,433.021H15.564v-48.987h184.951V433.021z"/>
	</g>
</g>
<g>
	<g>
		<rect x="96.044" y="465.016" width="55.985" height="14.996"/>
	</g>
</g>
<g>
	<g>
		<path d="M272.496,305.055v111.97v14.996v31.991h31.492v-14.996h-16.496v-16.995h208.944v16.995h-72.98h-62.983h-40.489v14.996
			h40.489v32.991h-16.496V512h16.496h62.983h16.496v-14.996h-16.496v-32.991h87.976v-31.991v-14.996v-64.483h-14.996v64.483H287.492
			v-96.974h208.944v16.496h14.996v-31.492H272.496z M408.459,497.004h-32.991v-32.991h32.991V497.004z"/>
	</g>
</g>
<g>
	<g>
		<polygon points="431.953,337.047 431.953,352.043 464.444,352.043 464.444,368.538 479.44,368.538 479.44,337.047 		"/>
	</g>
</g>
<g>
	<g>
		<rect x="464.445" y="384.537" width="14.996" height="15.996"/>
	</g>
</g>
<g>
	<g>
		<path d="M447.449,234.309v-73.214h-95.474v14.996h80.478v58.218c-9.288,3.137-15.996,11.927-15.996,22.26
			c0,12.955,10.539,23.494,23.494,23.494c12.955,0,23.494-10.539,23.494-23.494C463.444,246.236,456.736,237.446,447.449,234.309z
			 M439.951,265.066c-4.686,0-8.498-3.812-8.498-8.498c0-4.686,3.812-8.498,8.498-8.498c4.686,0,8.498,3.812,8.498,8.498
			S444.637,265.066,439.951,265.066z"/>
	</g>
</g>
<g>
	<g>
		<path d="M160.026,176.09v-14.996H64.551v73.214c-9.287,3.137-15.996,11.927-15.996,22.26c0,12.955,10.539,23.494,23.494,23.494
			c12.955,0,23.494-10.539,23.494-23.494c0-10.333-6.708-19.123-15.996-22.26V176.09H160.026z M80.547,256.568
			c0,4.686-3.812,8.498-8.498,8.498c-4.686,0-8.498-3.812-8.498-8.498c0-4.686,3.812-8.498,8.498-8.498
			C76.735,248.071,80.547,251.883,80.547,256.568z"/>
	</g>
</g>
<g>
	<g>
		<path d="M298.685,90.384l-3.196,3.196v-7.892c0-11.852-9.642-21.494-21.494-21.494h-35.99c-11.852,0-21.494,9.642-21.494,21.494
			v9.997h14.996v-9.997c0-3.583,2.915-6.498,6.498-6.498h35.99c3.583,0,6.498,2.915,6.498,6.498v7.892l-3.196-3.196l-10.603,10.603
			l21.297,21.297l21.297-21.297L298.685,90.384z"/>
	</g>
</g>
<g>
	<g>
		<path d="M280.493,127.677v9.997c0,3.583-2.915,6.498-6.498,6.498h-35.99c-3.583,0-6.498-2.915-6.498-6.498v-7.892l3.196,3.196
			l10.603-10.603l-21.297-21.297l-21.297,21.297l10.603,10.603l3.196-3.196v7.892c0,11.852,9.642,21.494,21.494,21.494h35.99
			c11.852,0,21.494-9.642,21.494-21.494v-9.997H280.493z"/>
	</g>
</g>
<g>
	<g>
		<path d="M358.708,58.006L256.095,0L154.003,58.918l0.038,8.687c0.297,66.849,36.634,128.814,94.829,161.711l8.267,4.674
			l8.226-4.747c57.9-33.415,93.683-95.7,93.385-162.549L358.708,58.006z M257.866,216.255l-0.806,0.465l-0.811-0.458
			c-53.518-30.254-86.935-87.231-87.213-148.706l87.135-50.286l87.58,49.508C344.017,128.251,311.109,185.528,257.866,216.255z"/>
	</g>
</g>
<g>
	<g>
		<polygon points="370.665,211.277 359.972,221.972 349.278,211.277 338.674,221.881 359.972,243.179 381.269,221.881 		"/>
	</g>
</g>
<g>
	<g>
		<polygon points="370.665,251.267 359.972,261.961 349.278,251.267 338.674,261.87 359.972,283.168 381.269,261.87 		"/>
	</g>
</g>
<g>
	<g>
		<polygon points="152.028,205.976 130.73,227.273 141.334,237.876 152.028,227.183 162.721,237.876 173.325,227.273 		"/>
	</g>
</g>
<g>
	<g>
		<polygon points="152.028,245.965 130.73,267.263 141.334,277.866 152.028,267.172 162.721,277.866 173.325,267.263 		"/>
	</g>
</g>
<g>
</g>
<g>
</g>
<g>
</g>
<g>
</g>
<g>
</g>
<g>
</g>
<g>
</g>
<g>
</g>
<g>
</g>
<g>
</g>
<g>
</g>
<g>
</g>
<g>
</g>
<g>
</g>
<g>
</g>
</svg>
