<?xml version="1.0" encoding="iso-8859-1"?>
<!-- Generator: Adobe Illustrator 19.0.0, SVG Export Plug-In . SVG Version: 6.00 Build 0)  -->
<svg version="1.1" id="Capa_1" xmlns="http://www.w3.org/2000/svg" xmlns:xlink="http://www.w3.org/1999/xlink" x="0px" y="0px"
	 viewBox="0 0 480 480" style="enable-background:new 0 0 480 480;" xml:space="preserve">
<g>
	<g>
		<circle cx="288" cy="40.428" r="16"/>
	</g>
</g>
<g>
	<g>
		<path d="M200,32.428H40c-4.418,0-8,3.582-8,8s3.582,8,8,8h160c4.418,0,8-3.582,8-8S204.418,32.428,200,32.428z"/>
	</g>
</g>
<g>
	<g>
		<path d="M256,32.428h-24c-4.418,0-8,3.582-8,8s3.582,8,8,8h24c4.418,0,8-3.582,8-8S260.418,32.428,256,32.428z"/>
	</g>
</g>
<g>
	<g>
		<circle cx="288" cy="136.428" r="16"/>
	</g>
</g>
<g>
	<g>
		<path d="M200,128.428H40c-4.418,0-8,3.582-8,8s3.582,8,8,8h160c4.418,0,8-3.582,8-8S204.418,128.428,200,128.428z"/>
	</g>
</g>
<g>
	<g>
		<path d="M256,128.428h-24c-4.418,0-8,3.582-8,8s3.582,8,8,8h24c4.418,0,8-3.582,8-8S260.418,128.428,256,128.428z"/>
	</g>
</g>
<g>
	<g>
		<path d="M200,224.428H40c-4.418,0-8,3.582-8,8s3.582,8,8,8h160c4.418,0,8-3.582,8-8S204.418,224.428,200,224.428z"/>
	</g>
</g>
<g>
	<g>
		<path d="M200,320.428H40c-4.418,0-8,3.582-8,8s3.582,8,8,8h160c4.418,0,8-3.582,8-8S204.418,320.428,200,320.428z"/>
	</g>
</g>
<g>
	<g>
		<path d="M480,220.428c0-14.664-16.112-25.76-40-33.152V40.428c0-4.418-3.582-8-8-8h-96v-8c0-13.255-10.745-24-24-24H24
			c-13.255,0-24,10.745-24,24v32c0,13.255,10.745,24,24,24h16v16H24c-13.255,0-24,10.745-24,24v32c0,13.255,10.745,24,24,24h16v16
			H24c-13.255,0-24,10.745-24,24v32c0,13.255,10.745,24,24,24h16v16H24c-13.255,0-24,10.745-24,24v32c0,13.255,10.745,24,24,24h16
			v48c0,4.418,3.582,8,8,8h184v11.712c0,28.512,62.4,43.432,124,43.432s124-14.92,124-43.432v-67.712h-0.592
			c0.362-1.402,0.561-2.841,0.592-4.288v-67.712h-0.592c0.362-1.402,0.561-2.841,0.592-4.288v-67.712h-0.544
			C479.775,223.117,479.957,221.777,480,220.428z M24,64.428c-4.418,0-8-3.582-8-8v-32c0-4.418,3.582-8,8-8h288c4.418,0,8,3.582,8,8
			v32c0,4.418-3.582,8-8,8H24z M280,80.428v16H56v-16H280z M24,160.428c-4.418,0-8-3.582-8-8v-32c0-4.418,3.582-8,8-8h288
			c4.418,0,8,3.582,8,8v32c0,4.418-3.582,8-8,8H24z M232,220.428c0.043,1.349,0.225,2.689,0.544,4H232v67.712
			c0.031,1.447,0.23,2.886,0.592,4.288H232v67.712c0.031,1.447,0.23,2.886,0.592,4.288H232v40H56v-40h152c4.418,0,8-3.582,8-8
			s-3.582-8-8-8H24c-4.418,0-8-3.582-8-8v-32c0-4.418,3.582-8,8-8h184c4.418,0,8-3.582,8-8s-3.582-8-8-8H56v-16h152
			c4.418,0,8-3.582,8-8s-3.582-8-8-8H24c-4.418,0-8-3.582-8-8v-32c0-4.418,3.582-8,8-8h184c4.418,0,8-3.582,8-8s-3.582-8-8-8H56v-16
			h256c13.255,0,24-10.745,24-24v-32c0-13.255-10.745-24-24-24h-16v-16h16c13.255,0,24-10.745,24-24v-8h88v134.696
			c-22.373-4.585-45.162-6.829-68-6.696C294.4,176.428,232,191.548,232,220.428z M464,436.14c0,9.312-38.12,27.432-108,27.432
			s-108-18.12-108-27.432v-49.536c22.464,13.824,65.4,20.968,108,20.968c42.6,0,85.536-7.144,108-20.968V436.14z M464,364.14
			c0,9.312-38.12,27.432-108,27.432s-108-18.12-108-27.432v-49.536c22.464,13.824,65.4,20.968,108,20.968
			c42.6,0,85.536-7.144,108-20.968V364.14z M464,292.14c0,9.312-38.12,27.432-108,27.432s-108-18.12-108-27.432v-48.952
			c22.464,14.04,65.4,21.24,108,21.24c42.6,0,85.536-7.2,108-21.24V292.14z M356,248.428c-69.88,0-108-18.496-108-28
			c0-9.504,38.12-28,108-28s108,18.504,108,28C464,229.932,425.88,248.428,356,248.428z"/>
	</g>
</g>
<g>
</g>
<g>
</g>
<g>
</g>
<g>
</g>
<g>
</g>
<g>
</g>
<g>
</g>
<g>
</g>
<g>
</g>
<g>
</g>
<g>
</g>
<g>
</g>
<g>
</g>
<g>
</g>
<g>
</g>
</svg>
