<?xml version="1.0" encoding="iso-8859-1"?>
<!-- Generator: Adobe Illustrator 19.0.0, SVG Export Plug-In . SVG Version: 6.00 Build 0)  -->
<svg version="1.1" id="Capa_1" xmlns="http://www.w3.org/2000/svg" xmlns:xlink="http://www.w3.org/1999/xlink" x="0px" y="0px"
	 viewBox="0 0 479.389 479.389" style="enable-background:new 0 0 479.389 479.389;" xml:space="preserve">
<g>
	<g>
		<g>
			<path style="fill:#010002;" d="M479.389,204.75c-7.032,9.189-15.466,17.429-25.087,24.634v149.442h-22.736
				c0.022,5.393,0.043,9.254,0.043,9.254h-0.065c0,1.186,0.022,8.305,0.022,15.833h47.822
				C479.389,403.913,479.389,204.75,479.389,204.75z"/>
			<path style="fill:#010002;" d="M25.108,378.826v-250.76l214.608,145.301l55.415-37.512c-7.615-4.789-14.409-10.332-20.73-16.286
				c-18.119,12.274-31.429,21.269-34.707,23.491c-11.152-7.571-135.853-92.021-182.899-123.838h182.963
				c2.114-11.691,6.083-22.822,11.627-33.133H0v317.824h310.296c-0.022-7.075-0.043-15.574-0.086-25.087H25.108z"/>
			<path style="fill:#010002;" d="M389.655,386.613l-0.043-23.706h16.696l-0.108-26.208h-16.631l-0.086-23.663h16.739l-0.086-23.706
				h-16.717l-0.043-23.685l16.76-0.043l-0.259-37.317c41.653-13.093,71.637-48.124,71.637-89.756
				c-0.108-52.784-48.34-95.321-107.401-95.192c-59.298,0.108-107.207,42.991-107.142,95.623
				c0.173,41.545,30.221,76.468,71.852,89.476l0.561,182.554l34.837,25.065l36.153-25.303l-0.043-24.159h-16.674
				C389.655,386.592,389.655,386.613,389.655,386.613z M346.017,108.717c-0.086-13.352,10.764-24.267,24.181-24.289
				c13.244,0,24.224,10.85,24.224,24.181c0.086,13.439-10.829,24.267-24.159,24.267
				C356.867,132.876,346.017,122.199,346.017,108.717z"/>
		</g>
	</g>
	<g>
	</g>
	<g>
	</g>
	<g>
	</g>
	<g>
	</g>
	<g>
	</g>
	<g>
	</g>
	<g>
	</g>
	<g>
	</g>
	<g>
	</g>
	<g>
	</g>
	<g>
	</g>
	<g>
	</g>
	<g>
	</g>
	<g>
	</g>
	<g>
	</g>
</g>
<g>
</g>
<g>
</g>
<g>
</g>
<g>
</g>
<g>
</g>
<g>
</g>
<g>
</g>
<g>
</g>
<g>
</g>
<g>
</g>
<g>
</g>
<g>
</g>
<g>
</g>
<g>
</g>
<g>
</g>
</svg>
