<?xml version="1.0" encoding="iso-8859-1"?>
<!-- Generator: Adobe Illustrator 16.0.0, SVG Export Plug-In . SVG Version: 6.00 Build 0)  -->
<!DOCTYPE svg PUBLIC "-//W3C//DTD SVG 1.1//EN" "http://www.w3.org/Graphics/SVG/1.1/DTD/svg11.dtd">
<svg version="1.1" id="Capa_1" xmlns="http://www.w3.org/2000/svg" xmlns:xlink="http://www.w3.org/1999/xlink" x="0px" y="0px"
	 width="493.951px" height="493.951px" viewBox="0 0 493.951 493.951" style="enable-background:new 0 0 493.951 493.951;"
	 xml:space="preserve">
<g>
	<path d="M0,419.663c0,9.96,8.095,18.045,18.063,18.045H63.21c9.962,0,18.06-8.092,18.06-18.051v-3.145
		c18.69,1.655,25.002,5.284,34.554,10.805c7.082,4.09,15.889,9.186,31.292,14.842c41.189,15.138,112.697,8.942,115.712,8.671
		l0.875-0.124c37.001-6.951,42.403-31.794,45.974-48.237c1.324-6.101,2.601-11.869,4.965-15.155
		c15.806-16.208,22.728-34.194,25.629-48.705c-0.059-9.351,0.828-19.021,2.867-29.151c2.902-9.476,9.351-37.569-5.811-61.171
		c39.874-0.089,110.603-0.242,119.244-0.242c14.972,0,28.75-17.859,28.75-17.859c5.402-7.351,8.63-16.373,8.63-26.179
		c0-24.441-19.884-44.328-44.319-44.328H255.581c-7.899,0-13.839-0.975-17.995-2.071c23.799-45.008,29.923-77.939,18.184-97.986
		c-10.402-17.771-30.177-17.98-31.017-17.98c-32.684,0.006-47.345,38.438-49.216,43.74c-33.771,72.779-73.436,80.525-94.262,78.589
		v-3.165c-0.006-9.98-8.098-18.063-18.061-18.063H18.069c-9.975,0-18.058,8.083-18.058,18.063L0,419.663z M81.276,182.058
		c9.164,0.63,20.555-0.156,33.191-4.72c30.719-11.082,56.871-39.596,77.748-84.742l0.381-0.97
		c0.109-0.313,11.112-31.823,32.157-31.829c0.104,0.006,10.223,0.248,15.341,8.993c5.075,8.68,8.819,31.759-23.259,88.931
		l-4.013,7.131l6.682,4.726c1.211,0.843,12.377,8.258,36.076,8.252h194.057c14.429,0.006,26.167,11.741,26.167,26.17
		c0,14.437-11.738,26.185-26.167,26.179l-95.016,0.006c-0.768-0.213-1.561-0.364-2.394-0.364h-45.897
		c-5.012,0-9.078,4.067-9.078,9.079s4.066,9.079,9.078,9.079h3.901v0.361c0,0,1.152,0,3.251,0c0.172,0.165,0.319,0.366,0.509,0.52
		c24.653,20.824,11.229,57.068,11.094,57.423c-0.159,0.426-0.254,0.857-0.349,1.295c-0.851,1.607-1.229,3.481-0.975,5.432
		c0.2,1.401,4.326,34.832-22.449,61.963l-0.656,0.745c-5.16,6.508-6.963,14.848-8.713,22.886
		c-3.428,15.759-6.383,29.365-31.149,34.165c-5.946,0.496-71.576,5.508-107.396-7.661c-13.94-5.124-21.657-9.587-28.466-13.523
		c-12.262-7.093-20.972-11.491-43.645-13.3V182.058H81.276z"/>
</g>
<g>
</g>
<g>
</g>
<g>
</g>
<g>
</g>
<g>
</g>
<g>
</g>
<g>
</g>
<g>
</g>
<g>
</g>
<g>
</g>
<g>
</g>
<g>
</g>
<g>
</g>
<g>
</g>
<g>
</g>
</svg>
