<?xml version="1.0" encoding="iso-8859-1"?>
<!-- Generator: Adobe Illustrator 18.0.0, SVG Export Plug-In . SVG Version: 6.00 Build 0)  -->
<!DOCTYPE svg PUBLIC "-//W3C//DTD SVG 1.1//EN" "http://www.w3.org/Graphics/SVG/1.1/DTD/svg11.dtd">
<svg version="1.1" id="Capa_1" xmlns="http://www.w3.org/2000/svg" xmlns:xlink="http://www.w3.org/1999/xlink" x="0px" y="0px"
	 viewBox="0 0 287.551 287.551" style="enable-background:new 0 0 287.551 287.551;" xml:space="preserve">
<g>
	<path d="M26.017,80.193h150.564c7.91,0,14.322-6.412,14.322-14.322V14.322c0-7.91-6.412-14.322-14.322-14.322H26.017
		c-7.91,0-14.322,6.412-14.322,14.322V65.87C11.695,73.78,18.107,80.193,26.017,80.193z M31.715,32.914
		c0-2.741,2.222-4.963,4.963-4.963h14.365c2.741,0,4.963,2.222,4.963,4.963v14.365c0,2.741-2.222,4.963-4.963,4.963H36.678
		c-2.741,0-4.963-2.222-4.963-4.963V32.914z"/>
	<path d="M26.017,182.774h81.801c-1.029-5.667-1.824-11.272-2.363-16.746c-1.65-16.771,8.186-32.683,23.919-38.694l56.283-21.507
		c-2.471-2.027-5.631-3.245-9.077-3.245H26.017c-7.91,0-14.322,6.412-14.322,14.322v51.548
		C11.695,176.362,18.107,182.774,26.017,182.774z M31.715,135.495c0-2.741,2.222-4.963,4.963-4.963h14.365
		c2.741,0,4.963,2.222,4.963,4.963v14.365c0,2.741-2.222,4.963-4.963,4.963H36.678c-2.741,0-4.963-2.222-4.963-4.963V135.495z"/>
	<path d="M113.014,205.163H26.017c-7.91,0-14.322,6.412-14.322,14.322v51.548c0,7.91,6.412,14.322,14.322,14.322h128.737
		c-7.842-8.149-15.184-18.444-21.884-30.708C124.736,239.758,117.917,222.599,113.014,205.163z M56.006,252.442
		c0,2.741-2.222,4.963-4.963,4.963H36.678c-2.741,0-4.963-2.222-4.963-4.963v-14.365c0-2.741,2.222-4.963,4.963-4.963h14.365
		c2.741,0,4.963,2.222,4.963,4.963V252.442z"/>
	<path d="M264.618,146.016l-57.808-22.089c-2.01-0.768-4.127-1.152-6.244-1.152c-2.117,0-4.234,0.384-6.244,1.152l-57.808,22.089
		c-7.359,2.812-11.925,10.214-11.154,18.054c5.048,51.328,36.715,123.481,75.206,123.481c38.491,0,70.158-72.153,75.206-123.481
		C276.544,156.218,271.988,148.832,264.618,146.016z"/>
</g>
<g>
</g>
<g>
</g>
<g>
</g>
<g>
</g>
<g>
</g>
<g>
</g>
<g>
</g>
<g>
</g>
<g>
</g>
<g>
</g>
<g>
</g>
<g>
</g>
<g>
</g>
<g>
</g>
<g>
</g>
</svg>
