<?xml version="1.0" encoding="iso-8859-1"?>
<!-- Generator: Adobe Illustrator 19.0.0, SVG Export Plug-In . SVG Version: 6.00 Build 0)  -->
<svg version="1.1" id="Layer_1" xmlns="http://www.w3.org/2000/svg" xmlns:xlink="http://www.w3.org/1999/xlink" x="0px" y="0px"
	 viewBox="0 0 512.024 512.024" style="enable-background:new 0 0 512.024 512.024;" xml:space="preserve">
<g>
	<g>
		<g>
			<path d="M416,117.345c29.397,0,53.333-23.936,53.333-53.333c0-5.888-4.779-10.667-10.667-10.667
				c-29.397,0-53.333,23.936-53.333,53.333C405.333,112.567,410.112,117.345,416,117.345z M444.885,77.793
				c-3.157,6.592-8.512,11.947-15.083,15.083C432.96,86.284,438.293,80.951,444.885,77.793z"/>
			<path d="M510.336,248.46c-1.707-2.645-4.459-4.416-7.573-4.821c-15.211-2.005-26.688-14.485-26.688-29.035
				c0-12.715,8.619-23.893,21.483-27.883c3.221-0.981,5.76-3.435,6.891-6.592c1.131-3.179,0.704-6.677-1.152-9.472
				c-12.437-18.837-32.299-31.979-48.299-31.979c-10.709,0-20.373,3.136-28.885,5.888c-6.592,2.133-12.8,4.16-17.941,4.16
				s-11.349-2.027-17.941-4.16c-8.533-2.773-18.197-5.888-28.885-5.888c-24.939,0-62.677,32.277-62.677,80.939
				c0,45.867,35.093,111.061,67.883,111.061c15.68,0,25.237-4.139,32.235-7.147c3.136-1.344,5.205-2.048,7.083-2.453
				c0.576,5.355,5.035,9.6,10.56,9.6c3.456,0,6.379-1.749,8.32-4.288c6.208,2.24,14.059,4.288,25.024,4.288
				c24.533,0,50.667-37.291,61.781-73.323C512.469,254.348,512.043,251.105,510.336,248.46z M449.749,309.324
				c-11.285,0-17.621-2.731-23.787-5.397c-5.269-2.283-10.731-4.629-17.813-4.629c-7.061,0-12.523,2.368-17.813,4.629
				c-6.144,2.645-12.523,5.397-23.787,5.397c-13.867,0-46.549-46.933-46.549-89.728c0-38.72,29.333-59.605,41.344-59.605
				c7.339,0,14.613,2.368,22.293,4.864c7.872,2.539,16.021,5.184,24.512,5.184c8.491,0,16.64-2.624,24.512-5.184
				c7.68-2.517,14.955-4.864,22.293-4.864c4.8,0,14.037,4.075,22.635,12.715c-14.101,9.237-22.891,24.725-22.891,41.856
				c0,20.949,13.419,39.381,32.747,46.976C476.267,289.804,458.197,309.324,449.749,309.324z"/>
			<path d="M437.227,351.735c-5.227-2.773-11.691-0.768-14.421,4.437c-5.611,10.603-16.384,17.173-28.139,17.173H53.333
				c-17.643,0-32-14.357-32-32v-10.667h277.333c5.888,0,10.667-4.779,10.667-10.667s-4.779-10.667-10.667-10.667H21.333V106.679
				c0-17.643,14.357-32,32-32h331.883c5.888,0,10.667-4.779,10.667-10.667s-4.779-10.667-10.667-10.667H53.333
				C23.936,53.345,0,77.281,0,106.679v234.667c0,29.397,23.936,53.333,53.333,53.333h127.701
				c-1.088,21.397-5.931,42.667-21.035,42.667c-5.888,0-10.667,4.779-10.667,10.667c0,5.888,4.779,10.667,10.667,10.667h128
				c5.888,0,10.645-4.779,10.645-10.667c0-5.888-4.779-10.667-10.667-10.667c-15.104,0-19.947-21.269-21.035-42.667h127.723
				c19.669,0,37.696-10.923,46.997-28.523C444.416,360.951,442.432,354.487,437.227,351.735z M193.323,437.345
				c5.205-10.389,8.107-24.789,8.96-42.667h43.413c0.853,17.877,3.755,32.277,8.96,42.667H193.323z"/>
		</g>
	</g>
</g>
<g>
</g>
<g>
</g>
<g>
</g>
<g>
</g>
<g>
</g>
<g>
</g>
<g>
</g>
<g>
</g>
<g>
</g>
<g>
</g>
<g>
</g>
<g>
</g>
<g>
</g>
<g>
</g>
<g>
</g>
</svg>
