<?xml version="1.0" encoding="iso-8859-1"?>
<!-- Generator: Adobe Illustrator 19.0.0, SVG Export Plug-In . SVG Version: 6.00 Build 0)  -->
<svg version="1.1" id="Capa_1" xmlns="http://www.w3.org/2000/svg" xmlns:xlink="http://www.w3.org/1999/xlink" x="0px" y="0px"
	 viewBox="0 0 512 512" style="enable-background:new 0 0 512 512;" xml:space="preserve">
<g>
	<g>
		<g>
			<path d="M80.042,393.212c-3.187-1.242-6.805-0.544-9.3,1.796c-0.773,0.814-1.383,1.769-1.796,2.813
				c-0.436,1.027-0.667,2.13-0.679,3.246c-0.022,2.27,0.87,4.453,2.475,6.058s3.788,2.497,6.058,2.475
				c1.115-0.014,2.216-0.246,3.242-0.683c1.054-0.394,2.013-1.004,2.817-1.791c3.3-3.365,3.3-8.752,0-12.117
				C82.056,394.218,81.097,393.606,80.042,393.212z"/>
			<path d="M104.875,395.008c-3.313,3.34-3.298,8.73,0.032,12.052c3.331,3.322,8.721,3.322,12.052,0
				c3.331-3.322,3.345-8.712,0.032-12.052C113.565,391.863,108.301,391.863,104.875,395.008z"/>
			<path d="M141.821,393.212c-1.044,0.413-1.999,1.023-2.813,1.796c-3.3,3.365-3.3,8.752,0,12.117
				c0.815,0.771,1.77,1.379,2.813,1.792c2.067,0.911,4.421,0.911,6.487,0c1.044-0.414,1.999-1.022,2.817-1.792
				c3.3-3.365,3.3-8.752,0-12.117C148.652,392.621,145.004,391.917,141.821,393.212z"/>
			<path d="M506.025,82.357c-0.067-0.179-0.116-0.357-0.195-0.531C489.653,32.979,443.989,0,392.533,0
				c-51.456,0-97.12,32.98-113.297,81.828c-0.078,0.172-0.127,0.348-0.193,0.526c-3.014,9.263-4.876,18.861-5.544,28.579H143.855
				c-4.129-16.101-19.277-26.87-35.841-25.481c-16.564,1.389-29.706,14.531-31.095,31.095c-1.389,16.564,9.38,31.711,25.481,35.84
				v120.678H17.067C7.645,273.077,0.011,280.712,0,290.133v136.533c0.011,9.421,7.645,17.056,17.067,17.067H76.8V460.8H59.733
				c-14.132,0.015-25.585,11.468-25.6,25.6v17.067c-0.001,2.263,0.898,4.434,2.499,6.035c1.6,1.6,3.771,2.499,6.035,2.499H179.2
				c2.263,0.001,4.434-0.898,6.035-2.499c1.6-1.6,2.499-3.771,2.499-6.035V486.4c-0.015-14.132-11.468-25.585-25.6-25.6h-17.067
				v-17.067H204.8c9.421-0.011,17.056-7.645,17.067-17.067v-25.6h137.745c4.129,16.101,19.277,26.87,35.841,25.481
				c16.564-1.389,29.706-14.531,31.095-31.095c1.389-16.564-9.38-31.711-25.481-35.841V238.501
				c48.007-3.491,89.241-35.425,104.631-81.032c0.051-0.116,0.083-0.234,0.129-0.352
				C513.989,132.877,514.059,106.641,506.025,82.357z M384,18.674V76.8h-37.772C353.305,46.939,367.414,24.525,384,18.674z
				 M346.332,162.558H384v57.701C367.493,214.437,353.442,192.206,346.332,162.558z M348.844,211.941
				c-21.599-10.258-38.951-27.719-49.073-49.382h28.991C332.183,180.168,339.004,196.941,348.844,211.941z M343.147,145.491
				c-2.399-17.123-2.418-34.496-0.056-51.625H384v51.625H343.147z M348.844,26.993c-9.914,15.124-16.766,32.046-20.169,49.807
				h-29.109C309.659,54.943,327.096,37.318,348.844,26.993z M293.503,93.867h32.304c-2.074,17.147-2.053,34.483,0.061,51.625
				h-32.255C289.011,128.596,288.973,110.782,293.503,93.867z M93.867,119.467c0-9.426,7.641-17.067,17.067-17.067
				S128,110.041,128,119.467s-7.641,17.067-17.067,17.067C101.512,136.522,93.877,128.888,93.867,119.467z M162.133,477.867
				c4.711,0.005,8.529,3.822,8.533,8.533v8.533H51.2V486.4c0.005-4.711,3.822-8.529,8.533-8.533H162.133z M93.867,460.8v-17.067H128
				V460.8H93.867z M136.533,426.667H17.067V290.133H204.8l0.009,136.533H136.533z M359.612,384H221.867v-93.867
				c-0.011-9.421-7.646-17.056-17.067-17.067h-85.333V152.388c11.947-3.112,21.276-12.442,24.388-24.388h129.644
				c0.687,9.909,2.616,19.692,5.742,29.12c0.045,0.117,0.077,0.233,0.128,0.347c15.389,45.607,56.624,77.542,104.631,81.033v121.111
				C372.053,362.724,362.724,372.053,359.612,384z M409.6,392.533c0,9.426-7.641,17.067-17.067,17.067
				c-9.426,0-17.067-7.641-17.067-17.067c0-9.426,7.641-17.067,17.067-17.067C401.955,375.477,409.589,383.112,409.6,392.533z
				 M485.501,76.8h-29.109c-3.403-17.761-10.255-34.683-20.169-49.807C457.97,37.318,475.408,54.943,485.501,76.8z M401.067,18.674
				c16.586,5.85,30.696,28.265,37.773,58.125h-37.773V18.674z M401.067,93.867h40.909c2.362,17.129,2.343,34.502-0.056,51.625
				h-40.853V93.867z M401.067,220.259v-57.701h37.669C431.626,192.206,417.573,214.437,401.067,220.259z M436.223,211.94
				c9.839-14.999,16.661-31.773,20.082-49.382h28.991C475.174,184.221,457.822,201.683,436.223,211.94z M491.454,145.491h-32.255
				c2.114-17.142,2.135-34.478,0.061-51.625h32.304C496.093,110.782,496.056,128.596,491.454,145.491z"/>
		</g>
	</g>
</g>
<g>
</g>
<g>
</g>
<g>
</g>
<g>
</g>
<g>
</g>
<g>
</g>
<g>
</g>
<g>
</g>
<g>
</g>
<g>
</g>
<g>
</g>
<g>
</g>
<g>
</g>
<g>
</g>
<g>
</g>
</svg>
