<?xml version="1.0" encoding="iso-8859-1"?>
<!-- Generator: Adobe Illustrator 19.0.0, SVG Export Plug-In . SVG Version: 6.00 Build 0)  -->
<svg version="1.1" id="Capa_1" xmlns="http://www.w3.org/2000/svg" xmlns:xlink="http://www.w3.org/1999/xlink" x="0px" y="0px"
	 viewBox="0 0 512 512" style="enable-background:new 0 0 512 512;" xml:space="preserve">
<g>
	<g>
		<g>
			<path d="M170.667,102.4H51.2c-9.421,0.011-17.056,7.645-17.067,17.067v25.6c0.011,9.421,7.645,17.056,17.067,17.067h119.467
				c9.421-0.011,17.056-7.646,17.067-17.067v-25.6C187.723,110.045,180.088,102.411,170.667,102.4z M51.2,145.067v-25.6h119.467
				l0.009,25.6H51.2z"/>
			<path d="M176.725,181.675c-0.429-0.341-0.854-0.683-1.279-1.025c-0.476-0.324-0.993-0.583-1.538-0.771
				c-0.484-0.246-1.002-0.417-1.537-0.508c-2.81-0.574-5.721,0.29-7.763,2.304c-0.754,0.828-1.362,1.78-1.796,2.813
				c-0.437,1.027-0.668,2.13-0.68,3.246c-0.022,2.27,0.87,4.453,2.475,6.058c1.605,1.605,3.788,2.497,6.058,2.475
				c0.571-0.016,1.141-0.073,1.704-0.171c0.535-0.095,1.053-0.268,1.537-0.513c0.544-0.187,1.062-0.447,1.538-0.771
				c0.425-0.338,0.85-0.679,1.279-1.021c1.557-1.637,2.441-3.8,2.475-6.058c-0.013-1.116-0.245-2.219-0.683-3.246
				C178.083,183.456,177.477,182.504,176.725,181.675z"/>
			<path d="M151.125,181.675c-0.429-0.341-0.854-0.683-1.279-1.025c-0.476-0.324-0.993-0.583-1.538-0.771
				c-0.484-0.246-1.002-0.417-1.537-0.508c-2.81-0.574-5.721,0.29-7.763,2.304c-0.754,0.828-1.362,1.78-1.796,2.813
				c-0.437,1.027-0.668,2.13-0.68,3.246c-0.022,2.27,0.87,4.453,2.475,6.058c1.605,1.605,3.788,2.497,6.058,2.475
				c0.571-0.016,1.141-0.073,1.704-0.171c0.535-0.095,1.053-0.268,1.537-0.513c0.544-0.187,1.062-0.447,1.538-0.771
				c0.425-0.338,0.85-0.679,1.279-1.021c1.557-1.637,2.441-3.8,2.475-6.058c-0.013-1.116-0.245-2.219-0.683-3.246
				C152.483,183.456,151.877,182.504,151.125,181.675z"/>
			<path d="M93.867,392.533H76.8c-4.713,0-8.533,3.821-8.533,8.533s3.82,8.533,8.533,8.533h17.067c4.713,0,8.533-3.82,8.533-8.533
				S98.579,392.533,93.867,392.533z"/>
			<path d="M128,392.533c-4.713,0-8.533,3.821-8.533,8.533s3.82,8.533,8.533,8.533h17.067c4.713,0,8.533-3.82,8.533-8.533
				s-3.821-8.533-8.533-8.533H128z"/>
			<path d="M494.933,119.421c9.421-0.011,17.056-7.645,17.067-17.067V17.067C511.989,7.645,504.355,0.011,494.933,0h-153.6
				c-9.421,0.011-17.056,7.645-17.067,17.067V51.2h-18.278c-4.129-16.101-19.277-26.87-35.841-25.481
				c-16.564,1.389-29.706,14.531-31.095,31.095c-1.389,16.564,9.38,31.711,25.481,35.84v130.424
				c-11.947,3.112-21.276,12.442-24.388,24.388h-18.278v-153.6c-0.015-14.132-11.468-25.585-25.6-25.6H25.6
				C11.468,68.282,0.015,79.735,0,93.867v324.267c0.015,14.132,11.468,25.585,25.6,25.6h170.667
				c14.132-0.015,25.585-11.468,25.6-25.6v-153.6h18.278c3.112,11.947,12.442,21.276,24.388,24.388v121.89
				c-16.101,4.129-26.87,19.277-25.481,35.841c1.389,16.564,14.531,29.706,31.095,31.095c16.564,1.389,31.712-9.38,35.841-25.481
				h18.278v8.533c0.011,9.421,7.646,17.056,17.067,17.067H384v17.067h-8.533c-4.713,0-8.533,3.82-8.533,8.533
				s3.82,8.533,8.533,8.533H460.8c4.713,0,8.533-3.82,8.533-8.533s-3.82-8.533-8.533-8.533h-8.533v-17.067h42.667
				c9.421-0.011,17.056-7.646,17.067-17.067v-85.288c-0.011-9.421-7.645-17.056-17.067-17.067h-153.6
				c-9.421,0.011-17.056,7.645-17.067,17.067V435.2h-18.278c-3.112-11.947-12.442-21.276-24.388-24.388v-121.89
				c11.947-3.112,21.276-12.442,24.388-24.388h18.278V281.6c0.011,9.421,7.646,17.056,17.067,17.067H384v17.067h-8.533
				c-4.713,0-8.533,3.82-8.533,8.533s3.82,8.533,8.533,8.533H460.8c4.713,0,8.533-3.82,8.533-8.533s-3.82-8.533-8.533-8.533h-8.533
				v-17.067h42.667c9.421-0.011,17.056-7.646,17.067-17.067v-85.288c-0.011-9.421-7.645-17.056-17.067-17.067h-153.6
				c-9.421,0.011-17.056,7.645-17.067,17.067v51.154h-18.278c-3.112-11.947-12.442-21.276-24.388-24.388V92.655
				c11.947-3.112,21.276-12.442,24.388-24.388h18.278v34.088c0.011,9.421,7.646,17.056,17.067,17.067H384v17.067h-8.533
				c-4.713,0-8.533,3.821-8.533,8.533s3.82,8.533,8.533,8.533H460.8c4.713,0,8.533-3.82,8.533-8.533s-3.82-8.533-8.533-8.533h-8.533
				v-17.067H494.933z M204.8,418.133c-0.005,4.711-3.822,8.529-8.533,8.533H25.6c-4.711-0.005-8.529-3.822-8.533-8.533V226.585
				l59.952,27.251c-0.047,0.73-0.219,1.423-0.219,2.165c0,18.851,15.282,34.133,34.133,34.133s34.133-15.282,34.133-34.133
				c0-0.741-0.172-1.435-0.219-2.165l59.952-27.251V418.133z M93.867,256c0.011-9.421,7.645-17.056,17.067-17.067
				c9.426,0,17.067,7.641,17.067,17.067s-7.641,17.067-17.067,17.067S93.867,265.426,93.867,256z M204.8,207.84l-65.258,29.663
				c-6.251-9.743-17.032-15.635-28.608-15.635s-22.357,5.892-28.608,15.635L17.067,207.84V93.867
				c0.005-4.711,3.822-8.529,8.533-8.533h170.667c4.711,0.005,8.529,3.822,8.533,8.533V207.84z M435.2,494.933h-34.133v-17.067
				H435.2V494.933z M341.333,375.513h153.6l0.009,85.288H341.333V375.513z M435.2,315.733h-34.133v-17.067H435.2V315.733z
				 M341.333,196.313h153.6l0.009,85.288H341.333V196.313z M290.133,443.733c0,9.426-7.641,17.067-17.067,17.067
				c-9.426,0-17.067-7.641-17.067-17.067s7.641-17.067,17.067-17.067C282.488,426.677,290.123,434.312,290.133,443.733z
				 M290.133,256c0,9.426-7.641,17.067-17.067,17.067c-9.426,0-17.067-7.641-17.067-17.067s7.641-17.067,17.067-17.067
				C282.488,238.944,290.123,246.579,290.133,256z M273.067,76.8C263.641,76.8,256,69.159,256,59.733s7.641-17.067,17.067-17.067
				c9.426,0,17.067,7.641,17.067,17.067C290.123,69.155,282.488,76.789,273.067,76.8z M435.2,136.487h-34.133v-17.067H435.2V136.487
				z M443.733,102.354h-102.4V17.067h153.6l0.009,85.288H443.733z"/>
			<path d="M387.242,68.901c-3.187-1.242-6.805-0.544-9.3,1.796c-0.773,0.814-1.383,1.769-1.796,2.813
				c-0.436,1.027-0.667,2.13-0.679,3.246c-0.022,2.27,0.87,4.453,2.475,6.058c1.605,1.605,3.788,2.497,6.058,2.475
				c1.115-0.014,2.216-0.246,3.242-0.683c1.054-0.394,2.013-1.004,2.817-1.792c3.3-3.365,3.3-8.752,0-12.117
				C389.256,69.907,388.296,69.295,387.242,68.901z"/>
			<path d="M412.075,70.697c-3.313,3.34-3.298,8.73,0.032,12.052c3.331,3.322,8.721,3.322,12.052,0
				c3.331-3.322,3.345-8.712,0.033-12.052C420.765,67.552,415.501,67.552,412.075,70.697z"/>
			<path d="M449.021,68.901c-1.044,0.413-1.999,1.023-2.813,1.796c-3.3,3.365-3.3,8.752,0,12.117
				c0.815,0.771,1.77,1.379,2.813,1.792c2.067,0.911,4.421,0.911,6.487,0c1.044-0.414,1.999-1.022,2.817-1.792
				c3.3-3.365,3.3-8.752,0-12.117C455.852,68.31,452.204,67.606,449.021,68.901z"/>
			<path d="M387.242,248.146c-3.187-1.242-6.805-0.544-9.3,1.796c-0.773,0.814-1.383,1.769-1.796,2.813
				c-0.436,1.027-0.667,2.13-0.679,3.246c-0.022,2.27,0.87,4.453,2.475,6.058c1.605,1.605,3.788,2.497,6.058,2.475
				c1.115-0.014,2.216-0.246,3.242-0.683c1.054-0.394,2.013-1.005,2.817-1.792c3.3-3.365,3.3-8.752,0-12.117
				C389.256,249.151,388.296,248.539,387.242,248.146z"/>
			<path d="M421.246,248.258c-3.726-1.522-8.007-0.205-10.235,3.146s-1.783,7.809,1.063,10.654c1.637,1.557,3.8,2.441,6.059,2.475
				c4.024-0.039,7.462-2.911,8.218-6.863C427.108,253.717,424.972,249.78,421.246,248.258z"/>
			<path d="M446.208,249.941c-3.3,3.365-3.3,8.752,0,12.117c0.815,0.771,1.77,1.379,2.813,1.792c2.067,0.911,4.421,0.911,6.487,0
				c1.044-0.414,1.999-1.022,2.817-1.792c3.3-3.365,3.3-8.752,0-12.117C454.928,246.72,449.605,246.72,446.208,249.941z"/>
			<path d="M387.242,427.346c-3.187-1.242-6.805-0.544-9.3,1.796c-0.773,0.814-1.383,1.769-1.796,2.813
				c-0.436,1.027-0.667,2.13-0.679,3.246c-0.022,2.27,0.87,4.453,2.475,6.058c1.605,1.605,3.788,2.497,6.058,2.475
				c1.115-0.014,2.216-0.246,3.242-0.683c1.054-0.394,2.013-1.005,2.817-1.792c3.3-3.365,3.3-8.752,0-12.117
				C389.256,428.351,388.296,427.739,387.242,427.346z"/>
			<path d="M421.246,427.458c-3.726-1.522-8.007-0.205-10.235,3.146c-2.227,3.352-1.783,7.809,1.063,10.654
				c1.637,1.557,3.8,2.44,6.059,2.475c4.024-0.039,7.462-2.911,8.218-6.863C427.108,432.917,424.972,428.98,421.246,427.458z"/>
			<path d="M446.208,429.141c-3.3,3.365-3.3,8.752,0,12.117c0.815,0.771,1.77,1.379,2.813,1.792c2.067,0.911,4.421,0.911,6.487,0
				c1.044-0.414,1.999-1.022,2.817-1.792c3.3-3.365,3.3-8.752,0-12.117C454.928,425.92,449.605,425.92,446.208,429.141z"/>
		</g>
	</g>
</g>
<g>
</g>
<g>
</g>
<g>
</g>
<g>
</g>
<g>
</g>
<g>
</g>
<g>
</g>
<g>
</g>
<g>
</g>
<g>
</g>
<g>
</g>
<g>
</g>
<g>
</g>
<g>
</g>
<g>
</g>
</svg>
