<?xml version="1.0" encoding="iso-8859-1"?>
<!-- Generator: Adobe Illustrator 19.0.0, SVG Export Plug-In . SVG Version: 6.00 Build 0)  -->
<svg version="1.1" id="Capa_1" xmlns="http://www.w3.org/2000/svg" xmlns:xlink="http://www.w3.org/1999/xlink" x="0px" y="0px"
	 viewBox="0 0 51.052 51.052" style="enable-background:new 0 0 51.052 51.052;" xml:space="preserve">
<g>
	<path d="M45.026,20.052h-5V14.5c0-7.995-6.505-14.5-14.5-14.5s-14.5,6.505-14.5,14.5v5.552h-5c-0.552,0-1,0.447-1,1v22
		c0,4.411,3.589,8,8,8h25c4.411,0,8-3.589,8-8v-22C46.026,20.499,45.578,20.052,45.026,20.052z M13.026,14.5
		c0-6.893,5.607-12.5,12.5-12.5s12.5,5.607,12.5,12.5V20h-25V14.5z M44.026,22.052v20h-37v-20H44.026z M13.026,49.052
		c-0.344,0-0.679-0.036-1.007-0.091c-0.04-0.007-0.08-0.011-0.119-0.018c-0.31-0.059-0.609-0.145-0.9-0.25
		c-0.049-0.018-0.099-0.035-0.147-0.054c-0.283-0.111-0.556-0.242-0.817-0.392c-0.044-0.025-0.087-0.052-0.13-0.079
		c-0.261-0.16-0.512-0.336-0.745-0.533c-0.026-0.022-0.049-0.046-0.075-0.068c-0.239-0.209-0.464-0.433-0.668-0.677
		c-0.004-0.004-0.008-0.008-0.011-0.013c-0.202-0.244-0.381-0.508-0.543-0.782C7.842,46.059,7.82,46.025,7.8,45.99
		c-0.15-0.265-0.277-0.545-0.386-0.833c-0.018-0.049-0.037-0.098-0.054-0.147c-0.1-0.289-0.179-0.588-0.235-0.895
		c-0.004-0.021-0.006-0.042-0.01-0.063h36.819c-0.003,0.021-0.006,0.042-0.01,0.063c-0.055,0.307-0.134,0.606-0.235,0.895
		c-0.017,0.05-0.036,0.098-0.054,0.147c-0.109,0.288-0.236,0.568-0.386,0.833c-0.02,0.035-0.042,0.069-0.063,0.104
		c-0.162,0.274-0.341,0.538-0.543,0.782c-0.004,0.004-0.008,0.008-0.011,0.013c-0.203,0.244-0.429,0.468-0.668,0.677
		c-0.025,0.022-0.049,0.046-0.075,0.068c-0.233,0.197-0.484,0.373-0.745,0.533c-0.043,0.026-0.086,0.054-0.13,0.079
		c-0.261,0.151-0.534,0.282-0.817,0.392c-0.049,0.019-0.098,0.036-0.147,0.054c-0.291,0.105-0.591,0.191-0.9,0.25
		c-0.039,0.008-0.08,0.011-0.119,0.018c-0.328,0.056-0.663,0.091-1.007,0.091H13.026z"/>
	<path d="M14.026,39.052h5c0.552,0,1-0.447,1-1v-12c0-0.553-0.448-1-1-1h-5c-0.552,0-1,0.447-1,1v12
		C13.026,38.604,13.474,39.052,14.026,39.052z M18.026,33.052h-3v-2h3V33.052z M15.026,37.052v-2h3v2H15.026z M18.026,27.052v2h-3
		v-2H18.026z"/>
	<path d="M23.026,39.052h5c0.552,0,1-0.447,1-1v-12c0-0.553-0.448-1-1-1h-5c-0.552,0-1,0.447-1,1v12
		C22.026,38.604,22.474,39.052,23.026,39.052z M27.026,33.052h-3v-2h3V33.052z M24.026,37.052v-2h3v2H24.026z M27.026,27.052v2h-3
		v-2H27.026z"/>
	<path d="M32.026,39.052h5c0.552,0,1-0.447,1-1v-12c0-0.553-0.448-1-1-1h-5c-0.552,0-1,0.447-1,1v12
		C31.026,38.604,31.474,39.052,32.026,39.052z M36.026,33.052h-3v-2h3V33.052z M33.026,37.052v-2h3v2H33.026z M36.026,27.052v2h-3
		v-2H36.026z"/>
</g>
<g>
</g>
<g>
</g>
<g>
</g>
<g>
</g>
<g>
</g>
<g>
</g>
<g>
</g>
<g>
</g>
<g>
</g>
<g>
</g>
<g>
</g>
<g>
</g>
<g>
</g>
<g>
</g>
<g>
</g>
</svg>
