<?xml version="1.0" encoding="iso-8859-1"?>
<!-- Generator: Adobe Illustrator 16.0.0, SVG Export Plug-In . SVG Version: 6.00 Build 0)  -->
<!DOCTYPE svg PUBLIC "-//W3C//DTD SVG 1.1//EN" "http://www.w3.org/Graphics/SVG/1.1/DTD/svg11.dtd">
<svg version="1.1" id="Capa_1" xmlns="http://www.w3.org/2000/svg" xmlns:xlink="http://www.w3.org/1999/xlink" x="0px" y="0px"
	 width="73.168px" height="73.168px" viewBox="0 0 73.168 73.168" style="enable-background:new 0 0 73.168 73.168;"
	 xml:space="preserve">
<g>
	<g id="Arrow_Right">
		<g>
			<path d="M71.648,33.765L50.965,15.187c-1.884-1.692-4.775-1.534-6.465,0.346c-1.688,1.889-1.529,4.784,0.352,6.478l11.258,10.107
				H4.577C2.05,32.117,0,34.171,0,36.699c0,2.529,2.05,4.582,4.577,4.582h52.021l-11.635,9.786c-1.08,0.908-1.633,2.203-1.633,3.512
				c0,1.038,0.354,2.084,1.072,2.941c1.627,1.938,4.514,2.188,6.449,0.562l20.684-17.396c1.018-0.856,1.609-2.105,1.633-3.438
				C73.098,35.856,72.635,34.653,71.648,33.765z"/>
		</g>
	</g>
</g>
<g>
</g>
<g>
</g>
<g>
</g>
<g>
</g>
<g>
</g>
<g>
</g>
<g>
</g>
<g>
</g>
<g>
</g>
<g>
</g>
<g>
</g>
<g>
</g>
<g>
</g>
<g>
</g>
<g>
</g>
</svg>
