<?xml version="1.0" encoding="iso-8859-1"?>
<!-- Generator: Adobe Illustrator 19.0.0, SVG Export Plug-In . SVG Version: 6.00 Build 0)  -->
<svg version="1.1" id="Capa_1" xmlns="http://www.w3.org/2000/svg" xmlns:xlink="http://www.w3.org/1999/xlink" x="0px" y="0px"
	 viewBox="0 0 480 480" style="enable-background:new 0 0 480 480;" xml:space="preserve">
<g>
	<g>
		<g>
			<path d="M464,337.472V136c-0.025-6.799-2.932-13.268-8-17.8V24c0-13.255-10.745-24-24-24s-24,10.745-24,24v94.2
				c-5.067,4.532-7.975,11.001-8,17.8v200H24c-13.255,0-24,10.745-24,24v96c0,13.255,10.745,24,24,24h432c13.255,0,24-10.745,24-24
				v-96C479.958,349.866,473.555,340.85,464,337.472z M416,136c0.003-2.841,1.53-5.461,4-6.864c2.473-1.428,3.997-4.065,4-6.92V24
				c0-4.418,3.582-8,8-8s8,3.582,8,8v98.216c0.003,2.855,1.527,5.492,4,6.92c2.47,1.403,3.997,4.023,4,6.864v200h-32V136z M464,456
				c0,4.418-3.582,8-8,8H24c-4.418,0-8-3.582-8-8v-96c0-4.418,3.582-8,8-8h432c4.418,0,8,3.582,8,8V456z"/>
			<path d="M440,368H40c-4.418,0-8,3.582-8,8v64c0,4.418,3.582,8,8,8h400c4.418,0,8-3.582,8-8v-64C448,371.582,444.418,368,440,368z
				 M432,432H48v-48h384V432z"/>
			<rect x="64" y="400" width="32" height="16"/>
			<path d="M381.424,217.776l11.312-11.312c-84.408-84.222-221.064-84.222-305.472,0l11.312,11.312
				C176.736,139.8,303.264,139.8,381.424,217.776z"/>
			<path d="M370.104,229.088c-71.899-71.746-188.309-71.746-260.208,0l11.312,11.312c65.655-65.506,171.945-65.506,237.6,0
				L370.104,229.088z"/>
			<path d="M347.48,251.712c-59.4-59.262-155.56-59.262-214.96,0l11.312,11.312c53.148-53.025,139.188-53.025,192.336,0
				L347.48,251.712z"/>
			<path d="M155.152,274.344l11.312,11.312c40.641-40.544,106.431-40.544,147.072,0l11.312-11.312
				C277.959,227.554,202.041,227.554,155.152,274.344z"/>
		</g>
	</g>
</g>
<g>
</g>
<g>
</g>
<g>
</g>
<g>
</g>
<g>
</g>
<g>
</g>
<g>
</g>
<g>
</g>
<g>
</g>
<g>
</g>
<g>
</g>
<g>
</g>
<g>
</g>
<g>
</g>
<g>
</g>
</svg>
