<?xml version="1.0" encoding="iso-8859-1"?>
<!-- Generator: Adobe Illustrator 16.0.0, SVG Export Plug-In . SVG Version: 6.00 Build 0)  -->
<!DOCTYPE svg PUBLIC "-//W3C//DTD SVG 1.1//EN" "http://www.w3.org/Graphics/SVG/1.1/DTD/svg11.dtd">
<svg version="1.1" id="Capa_1" xmlns="http://www.w3.org/2000/svg" xmlns:xlink="http://www.w3.org/1999/xlink" x="0px" y="0px"
	 width="600.996px" height="600.996px" viewBox="0 0 600.996 600.996" style="enable-background:new 0 0 600.996 600.996;"
	 xml:space="preserve">
<g>
	<g>
		<path d="M58.64,587.032h483.716c32.059,0,58.141-26.082,58.141-58.141V72.104c0-32.058-26.082-58.14-58.141-58.14h-7.061h-42.84
			H379.707h-43.078h-34.488H259.3h-35.626h-42.84h-17.116c-14.91,0-29.09,5.639-39.928,15.879L18.71,129.127
			C7.137,140.062,0.5,155.465,0.5,171.387v357.505C0.5,560.95,26.582,587.032,58.64,587.032z M336.629,56.804l-0.268,48.408
			c-0.047,8.417-6.883,15.215-15.301,15.215h-3.619c-8.451,0-15.301-6.85-15.301-15.3V56.804H336.629z M259.3,56.804v48.323
			c0,32.059,26.082,58.14,58.14,58.14h3.621c15.469,0,30.029-6.007,40.998-16.916c10.967-10.908,17.055-25.434,17.141-40.902
			l0.27-48.408v-0.238h112.984v122.979c0,8.45-6.85,15.3-15.299,15.3H238.974c-8.451,0-15.3-6.85-15.3-15.3V56.804H259.3z
			 M43.34,171.387c0-4.208,1.733-8.231,4.792-11.121L153.21,60.982c2.841-2.684,6.6-4.179,10.508-4.179h17.116v122.979
			c0,32.059,26.082,58.14,58.14,58.14h238.181c32.059,0,58.141-26.082,58.141-58.14V56.804h7.061c8.451,0,15.301,6.85,15.301,15.3
			v456.788c0,8.45-6.85,15.301-15.301,15.301H58.64c-8.45,0-15.3-6.851-15.3-15.301V171.387z"/>
		<path d="M542.355,587.532H58.64C26.306,587.532,0,561.227,0,528.892V171.387c0-16.059,6.694-31.595,18.367-42.623l105.079-99.284
			c10.93-10.328,25.232-16.016,40.271-16.016h378.638c32.335,0,58.641,26.306,58.641,58.64v456.788
			C600.996,561.227,574.69,587.532,542.355,587.532z M163.718,14.464c-14.783,0-28.841,5.591-39.585,15.742L19.054,129.49
			C7.581,140.331,1,155.602,1,171.387v357.505c0,31.783,25.857,57.641,57.64,57.641h483.716c31.783,0,57.641-25.857,57.641-57.641
			V72.104c0-31.783-25.857-57.64-57.641-57.64H163.718z M542.355,544.692H58.64c-8.712,0-15.8-7.088-15.8-15.801V171.387
			c0-4.327,1.804-8.513,4.949-11.484l105.078-99.283c2.946-2.783,6.799-4.315,10.851-4.315h17.616v123.479
			c0,31.783,25.857,57.64,57.64,57.64h238.181c31.783,0,57.641-25.857,57.641-57.64V56.304h7.561c8.713,0,15.801,7.088,15.801,15.8
			v456.788C558.156,537.604,551.068,544.692,542.355,544.692z M163.718,57.304c-3.795,0-7.405,1.436-10.165,4.042L48.475,160.629
			c-2.946,2.784-4.635,6.705-4.635,10.758v357.505c0,8.161,6.639,14.801,14.8,14.801h483.716c8.161,0,14.801-6.64,14.801-14.801
			V72.104c0-8.161-6.64-14.8-14.801-14.8h-6.561v122.479c0,32.334-26.306,58.64-58.641,58.64H238.974
			c-32.334,0-58.64-26.306-58.64-58.64V57.304H163.718z M477.154,195.583H238.974c-8.712,0-15.8-7.088-15.8-15.8V56.304H259.8
			v48.823c0,31.783,25.857,57.64,57.64,57.64h3.621c15.336,0,29.771-5.956,40.646-16.77c10.873-10.814,16.908-25.216,16.993-40.551
			l0.27-49.143h113.984v123.479C492.953,188.495,485.866,195.583,477.154,195.583z M224.174,57.304v122.479
			c0,8.161,6.639,14.8,14.8,14.8h238.181c8.16,0,14.799-6.639,14.799-14.8V57.303H379.967l-0.268,48.148
			c-0.087,15.601-6.227,30.252-17.288,41.254c-11.063,11.002-25.748,17.061-41.351,17.061h-3.621
			c-32.334,0-58.64-26.306-58.64-58.64V57.304H224.174z M321.061,120.927h-3.619c-8.713,0-15.801-7.088-15.801-15.8V56.304h35.491
			l-0.271,48.911C336.813,113.878,329.725,120.927,321.061,120.927z M302.641,57.304v47.823c0,8.161,6.64,14.8,14.801,14.8h3.619
			c8.116,0,14.756-6.603,14.801-14.718l0.265-47.905H302.641z"/>
	</g>
</g>
<g>
</g>
<g>
</g>
<g>
</g>
<g>
</g>
<g>
</g>
<g>
</g>
<g>
</g>
<g>
</g>
<g>
</g>
<g>
</g>
<g>
</g>
<g>
</g>
<g>
</g>
<g>
</g>
<g>
</g>
</svg>
