<?xml version="1.0" encoding="iso-8859-1"?>
<!-- Generator: Adobe Illustrator 19.0.0, SVG Export Plug-In . SVG Version: 6.00 Build 0)  -->
<svg version="1.1" id="Capa_1" xmlns="http://www.w3.org/2000/svg" xmlns:xlink="http://www.w3.org/1999/xlink" x="0px" y="0px"
	 viewBox="0 0 496 496" style="enable-background:new 0 0 496 496;" xml:space="preserve">
<g>
	<g>
		<g>
			<path d="M160,408c0,22.056,17.944,40,40,40h64v32h-32v16h192v-16h-32v-32h64c22.056,0,40-17.944,40-40v-24H160V408z M376,480h-96
				v-32h96V480z M176,400h304v8c0,13.232-10.768,24-24,24H200c-13.232,0-24-10.768-24-24V400z"/>
			<rect x="160" y="352" width="16" height="16"/>
			<path d="M456,176H336v16h120c13.232,0,24,10.768,24,24v152h16V216C496,193.944,478.056,176,456,176z"/>
			<polygon points="320,96 304,96 304,320 16,320 16,96 0,96 0,336 320,336 			"/>
			<path d="M320,0H0v80h320V0z M304,64H16V16h288V64z"/>
			<rect x="32" y="32" width="16" height="16"/>
			<rect x="64" y="32" width="16" height="16"/>
			<rect x="96" y="32" width="16" height="16"/>
			<path d="M160,96c-30.88,0-56,25.128-56,56v25.472c-9.288,3.312-16,12.112-16,22.528v80c0,13.232,10.768,24,24,24h96
				c13.232,0,24-10.768,24-24v-80c0-10.416-6.712-19.216-16-22.528V152C216,121.128,190.88,96,160,96z M120,152
				c0-22.056,17.944-40,40-40c22.056,0,40,17.944,40,40v24h-80V152z M216,280c0,4.416-3.592,8-8,8h-96c-4.408,0-8-3.584-8-8v-80
				c0-4.416,3.592-8,8-8h96c4.408,0,8,3.584,8,8V280z"/>
			<path d="M160,208c-13.232,0-24,10.768-24,24c0,10.416,6.712,19.216,16,22.528V272h16v-17.472c9.288-3.312,16-12.112,16-22.528
				C184,218.768,173.232,208,160,208z M160,240c-4.408,0-8-3.584-8-8s3.592-8,8-8s8,3.584,8,8S164.408,240,160,240z"/>
		</g>
	</g>
</g>
<g>
</g>
<g>
</g>
<g>
</g>
<g>
</g>
<g>
</g>
<g>
</g>
<g>
</g>
<g>
</g>
<g>
</g>
<g>
</g>
<g>
</g>
<g>
</g>
<g>
</g>
<g>
</g>
<g>
</g>
</svg>
