<?xml version="1.0" encoding="iso-8859-1"?>
<!-- Generator: Adobe Illustrator 16.0.0, SVG Export Plug-In . SVG Version: 6.00 Build 0)  -->
<!DOCTYPE svg PUBLIC "-//W3C//DTD SVG 1.1//EN" "http://www.w3.org/Graphics/SVG/1.1/DTD/svg11.dtd">
<svg version="1.1" id="Capa_1" xmlns="http://www.w3.org/2000/svg" xmlns:xlink="http://www.w3.org/1999/xlink" x="0px" y="0px"
	 width="47.078px" height="47.078px" viewBox="0 0 47.078 47.078" style="enable-background:new 0 0 47.078 47.078;"
	 xml:space="preserve">
<g>
	<g id="_x31_5_79_">
		<g>
			<path d="M0,42.49h30.5v-11.5H0V42.49z M3.562,33.469h23.375v6.541H3.562V33.469z"/>
			<path d="M0,29.072h30.5v-11.5H0V29.072z M15.339,21.033c1.277,0,2.313,1.035,2.313,2.313s-1.035,2.313-2.313,2.313
				c-1.278,0-2.313-1.035-2.313-2.313S14.062,21.033,15.339,21.033z M6.812,21.033c1.277,0,2.313,1.035,2.313,2.313
				s-1.035,2.312-2.313,2.312s-2.313-1.035-2.313-2.312C4.499,22.067,5.535,21.033,6.812,21.033z"/>
			<path d="M0,16.088h30.5v-11.5H0V16.088z M24.166,8.025c1.277,0,2.312,1.035,2.312,2.312c0,1.278-1.035,2.313-2.312,2.313
				c-1.278,0-2.313-1.035-2.313-2.313C21.853,9.061,22.889,8.025,24.166,8.025z M15.339,8.048c1.277,0,2.313,1.035,2.313,2.313
				s-1.035,2.312-2.313,2.312c-1.278,0-2.313-1.034-2.313-2.312S14.062,8.048,15.339,8.048z M6.812,8.048
				c1.277,0,2.313,1.035,2.313,2.313s-1.035,2.312-2.313,2.312S4.5,11.639,4.5,10.361S5.535,8.048,6.812,8.048z"/>
			<path d="M47.071,15.281c-0.39-2.727-1.491-4.499-3.903-5.862c-0.41-0.231-0.939,0.062-0.939,0.54
				c0,1.321,0.898,7.549-1.651,7.549c-4.255,0-3.199-4.543-3.199-7.549c0-0.479-0.528-0.771-0.94-0.54
				c-4.406,2.491-5.111,7.652-1.5,11.174c0.559,0.543,1.154,0.715,1.595,1.057v20.329h6.387V22.165
				c0.697-0.949,1.947-1.761,2.61-2.493c0.998-1.101,1.322-2.657,1.544-4.06c0.011-0.069,0-0.13-0.007-0.192
				C47.066,15.374,47.079,15.331,47.071,15.281z"/>
		</g>
	</g>
</g>
<g>
</g>
<g>
</g>
<g>
</g>
<g>
</g>
<g>
</g>
<g>
</g>
<g>
</g>
<g>
</g>
<g>
</g>
<g>
</g>
<g>
</g>
<g>
</g>
<g>
</g>
<g>
</g>
<g>
</g>
</svg>
