<?xml version="1.0" encoding="iso-8859-1"?>
<!-- Generator: Adobe Illustrator 16.0.0, SVG Export Plug-In . SVG Version: 6.00 Build 0)  -->
<!DOCTYPE svg PUBLIC "-//W3C//DTD SVG 1.1//EN" "http://www.w3.org/Graphics/SVG/1.1/DTD/svg11.dtd">
<svg version="1.1" id="Capa_1" xmlns="http://www.w3.org/2000/svg" xmlns:xlink="http://www.w3.org/1999/xlink" x="0px" y="0px"
	 width="250.004px" height="250.004px" viewBox="0 0 250.004 250.004" style="enable-background:new 0 0 250.004 250.004;"
	 xml:space="preserve">
<g>
	<g id="_x34_4_11_">
		<g>
			<path d="M179.572,104.997H69.096v41.66h110.477V104.997z M93.775,134.287c-4.634,0-8.379-3.753-8.379-8.379
				c0-4.628,3.75-8.378,8.379-8.378c4.626,0,8.371,3.75,8.371,8.378C102.146,130.534,98.401,134.287,93.775,134.287z
				 M124.656,134.287c-4.628,0-8.371-3.753-8.371-8.379c0-4.628,3.748-8.378,8.371-8.378c4.621,0,8.376,3.75,8.376,8.378
				C133.032,130.534,129.277,134.287,124.656,134.287z"/>
			<path d="M171.813,2.25v29.478h30.295L174.53,57.965H77.213L49.185,31.728H78.19V2.25H0v29.478h33.972l35.124,32.895v35h110.477
				V67.529l37.612-35.802h32.819V2.25H171.813z M61.951,11.058c3.275,0,5.938,2.658,5.938,5.934c0,3.27-2.663,5.928-5.938,5.928
				c-3.271,0-5.924-2.658-5.924-5.928C56.027,13.716,58.681,11.058,61.951,11.058z M39.321,11.121c3.275,0,5.928,2.65,5.928,5.921
				c0,3.277-2.653,5.934-5.928,5.934c-3.271,0-5.934-2.651-5.934-5.934C33.393,13.771,36.056,11.121,39.321,11.121z M17.465,22.976
				c-3.28,0-5.931-2.651-5.931-5.934c0-3.271,2.651-5.921,5.931-5.921c3.278,0,5.929,2.65,5.929,5.921
				C23.394,20.325,20.743,22.976,17.465,22.976z M93.775,87.257c-4.634,0-8.379-3.75-8.379-8.378c0-4.626,3.75-8.376,8.379-8.376
				c4.626,0,8.371,3.75,8.371,8.376C102.146,83.507,98.401,87.257,93.775,87.257z M124.656,87.257c-4.628,0-8.371-3.75-8.371-8.378
				c0-4.626,3.748-8.376,8.371-8.376c4.621,0,8.376,3.75,8.376,8.376C133.032,83.507,129.277,87.257,124.656,87.257z M156.63,87.174
				c-4.626,0-8.373-3.75-8.373-8.376c0-4.629,3.747-8.379,8.373-8.379c4.637,0,8.374,3.75,8.374,8.379
				C165.004,83.424,161.267,87.174,156.63,87.174z M211.132,11.121c3.28,0,5.931,2.65,5.931,5.921c0,3.277-2.65,5.934-5.931,5.934
				c-3.271,0-5.931-2.651-5.931-5.934C205.206,13.771,207.872,11.121,211.132,11.121z M189.276,22.976
				c-3.28,0-5.932-2.651-5.932-5.934c0-3.271,2.651-5.921,5.932-5.921s5.931,2.65,5.931,5.921
				C195.207,20.325,192.557,22.976,189.276,22.976z M233.765,22.919c-3.271,0-5.926-2.658-5.926-5.928
				c0-3.275,2.655-5.934,5.926-5.934c3.275,0,5.936,2.658,5.936,5.934C239.7,20.261,237.04,22.919,233.765,22.919z"/>
			<path d="M179.572,185.646v-32.052H69.096v34.332l-32.41,30.351H0v29.479h78.19v-29.479H51.894l24.59-23.033h98.122l20.986,19.651
				h-23.785v29.483h78.191v-29.483h-39.192L179.572,185.646z M17.465,239.005c-3.28,0-5.931-2.65-5.931-5.931
				c0-3.275,2.651-5.926,5.931-5.926c3.278,0,5.929,2.65,5.929,5.926C23.394,236.354,20.743,239.005,17.465,239.005z
				 M39.321,239.005c-3.271,0-5.934-2.65-5.934-5.931c0-3.275,2.663-5.926,5.934-5.926c3.275,0,5.928,2.65,5.928,5.926
				C45.25,236.354,42.596,239.005,39.321,239.005z M61.951,227.082c3.275,0,5.938,2.661,5.938,5.937c0,3.27-2.663,5.926-5.938,5.926
				c-3.271,0-5.924-2.656-5.924-5.926C56.027,229.743,58.681,227.082,61.951,227.082z M166.669,186.266H81.996v-23.694h84.673
				V186.266L166.669,186.266z M189.276,235.628c-3.28,0-5.932-2.65-5.932-5.936c0-3.271,2.651-5.921,5.932-5.921
				s5.931,2.65,5.931,5.921C195.207,232.978,192.557,235.628,189.276,235.628z M233.765,223.71c3.275,0,5.936,2.661,5.936,5.932
				c0,3.27-2.66,5.931-5.936,5.931c-3.271,0-5.926-2.661-5.926-5.931C227.839,226.371,230.494,223.71,233.765,223.71z
				 M217.062,229.692c0,3.28-2.65,5.936-5.931,5.936c-3.271,0-5.931-2.65-5.931-5.936c0-3.271,2.66-5.921,5.931-5.921
				C214.412,223.771,217.062,226.422,217.062,229.692z"/>
		</g>
	</g>
</g>
<g>
</g>
<g>
</g>
<g>
</g>
<g>
</g>
<g>
</g>
<g>
</g>
<g>
</g>
<g>
</g>
<g>
</g>
<g>
</g>
<g>
</g>
<g>
</g>
<g>
</g>
<g>
</g>
<g>
</g>
</svg>
