<?xml version="1.0" encoding="iso-8859-1"?>
<!-- Generator: Adobe Illustrator 19.0.0, SVG Export Plug-In . SVG Version: 6.00 Build 0)  -->
<svg version="1.1" id="Capa_1" xmlns="http://www.w3.org/2000/svg" xmlns:xlink="http://www.w3.org/1999/xlink" x="0px" y="0px"
	 viewBox="0 0 512 512" style="enable-background:new 0 0 512 512;" xml:space="preserve">
<g>
	<g>
		<g>
			<path d="M360,0H152c-22.08,0.026-39.974,17.92-40,40v432c0.026,22.08,17.92,39.974,40,40h208c22.08-0.026,39.974-17.92,40-40V40
				C399.974,17.92,382.08,0.026,360,0z M384,472c0,13.255-10.745,24-24,24H152c-13.255,0-24-10.745-24-24v-56h256V472z M384,400H128
				V72h256V400z M384,56H128V40c0-13.255,10.745-24,24-24h208c13.255,0,24,10.745,24,24V56z"/>
			<path d="M256,488c17.673,0,32-14.327,32-32c0-17.673-14.327-32-32-32c-17.673,0-32,14.327-32,32C224,473.673,238.327,488,256,488
				z M256,440c8.837,0,16,7.163,16,16s-7.163,16-16,16s-16-7.163-16-16S247.163,440,256,440z"/>
			<path d="M184.066,287.168c2.768,0.551,5.583,0.829,8.406,0.832h127.056c2.902,0.02,5.798-0.267,8.64-0.856
				c23.435-4.773,38.563-27.641,33.79-51.076c-3.142-15.425-14.407-27.931-29.422-32.66h0
				c-9.172-36.418-46.131-58.505-82.549-49.332c-23.85,6.007-42.598,24.425-49.027,48.164
				c-23.452-4.665-46.246,10.565-50.911,34.017C145.384,259.709,160.614,282.503,184.066,287.168z M191.537,217.416
				c0.311-0.005,0.623-0.005,0.935,0c3.884-0.027,7.728,0.792,11.264,2.4c4.013,1.848,8.765,0.093,10.613-3.92
				c0.348-0.755,0.575-1.559,0.675-2.384c3.63-28.488,29.668-48.64,58.156-45.01c22.676,2.89,40.805,20.249,44.676,42.778
				c0.565,3.338,3.17,5.958,6.504,6.544c14.829,2.711,24.653,16.931,21.942,31.76c-2.006,10.971-10.484,19.619-21.414,21.84v0.056
				c-1.763,0.367-3.56,0.541-5.36,0.52H192.472c-15.073,0.258-27.501-11.752-27.759-26.825
				C164.455,230.102,176.465,217.674,191.537,217.416z"/>
			<path d="M152,488h8c4.418,0,8-3.582,8-8s-3.582-8-8-8h-8c-4.418,0-8,3.582-8,8S147.582,488,152,488z"/>
			<path d="M360,32h-8c-4.418,0-8,3.582-8,8s3.582,8,8,8h8c4.418,0,8-3.582,8-8S364.418,32,360,32z"/>
			<path d="M336,488h24c8.837,0,16-7.163,16-16v-24c0-4.418-3.582-8-8-8s-8,3.582-8,8v24h-24c-4.418,0-8,3.582-8,8
				S331.582,488,336,488z"/>
		</g>
	</g>
</g>
<g>
</g>
<g>
</g>
<g>
</g>
<g>
</g>
<g>
</g>
<g>
</g>
<g>
</g>
<g>
</g>
<g>
</g>
<g>
</g>
<g>
</g>
<g>
</g>
<g>
</g>
<g>
</g>
<g>
</g>
</svg>
