<?xml version="1.0" encoding="iso-8859-1"?>
<!-- Generator: Adobe Illustrator 19.0.0, SVG Export Plug-In . SVG Version: 6.00 Build 0)  -->
<svg version="1.1" id="Capa_1" xmlns="http://www.w3.org/2000/svg" xmlns:xlink="http://www.w3.org/1999/xlink" x="0px" y="0px"
	 viewBox="0 0 480 480" style="enable-background:new 0 0 480 480;" xml:space="preserve">
<g>
	<g>
		<path d="M479.536,366.784c-0.08-0.896-0.168-1.792-0.272-2.688c-0.32-2.736-0.712-5.456-1.248-8.152
			c-0.224-1.136-0.52-2.248-0.776-3.368c-0.4-1.72-0.832-3.424-1.32-5.128c-0.4-1.384-0.808-2.76-1.256-4.128
			c-0.52-1.552-1.104-3.088-1.688-4.616c-0.824-2.128-1.712-4.224-2.664-6.28c-0.568-1.224-1.144-2.44-1.76-3.64
			c-0.696-1.36-1.408-2.712-2.16-4.032c-0.144-0.248-0.264-0.504-0.4-0.752c-0.072-0.12-0.176-0.216-0.256-0.336
			c-4.872-8.312-10.824-15.896-17.72-22.528V40c0-22.056-17.944-40-40-40H40C17.944,0,0,17.944,0,40v272v32
			c0,22.056,17.944,40,40,40h232.344c0.032,0.408,0.088,0.816,0.12,1.216c0.08,0.896,0.168,1.792,0.272,2.688
			c0.32,2.736,0.712,5.456,1.248,8.152c0.224,1.136,0.52,2.248,0.776,3.368c0.4,1.72,0.832,3.424,1.32,5.128
			c0.4,1.384,0.808,2.76,1.256,4.128c0.52,1.552,1.104,3.088,1.688,4.616c0.824,2.128,1.712,4.224,2.664,6.28
			c0.568,1.224,1.144,2.44,1.76,3.64c0.696,1.36,1.408,2.712,2.16,4.032c0.144,0.248,0.264,0.504,0.4,0.752
			c0.072,0.12,0.176,0.216,0.256,0.336C304.344,459.184,337.752,480,376,480s71.656-20.816,89.72-51.656
			c0.08-0.12,0.184-0.208,0.256-0.336c0.144-0.248,0.264-0.504,0.4-0.752c0.752-1.328,1.464-2.672,2.16-4.032
			c0.616-1.2,1.192-2.416,1.76-3.64c0.96-2.064,1.848-4.152,2.664-6.28c0.592-1.528,1.176-3.064,1.688-4.616
			c0.464-1.368,0.872-2.744,1.272-4.136c0.488-1.696,0.92-3.408,1.32-5.128c0.256-1.12,0.552-2.232,0.776-3.368
			c0.536-2.696,0.928-5.424,1.248-8.152c0.104-0.896,0.192-1.784,0.272-2.688C479.808,382.16,480,379.088,480,376
			S479.808,369.84,479.536,366.784z M454.288,335.992c0.16,0.304,0.296,0.624,0.448,0.936c1.056,2.128,2.048,4.272,2.928,6.464
			c0.168,0.416,0.304,0.848,0.464,1.264c0.84,2.184,1.616,4.384,2.272,6.616c0.176,0.6,0.304,1.224,0.472,1.832
			c0.56,2.056,1.088,4.128,1.496,6.216c0.208,1.096,0.336,2.224,0.512,3.328c0.256,1.64,0.536,3.272,0.696,4.928
			c0.016,0.136,0.008,0.28,0.024,0.416h-32.016c-0.928-11.32-3.664-22.08-7.512-32H454.288z M443.832,320h-27.136
			c-6.304-11.776-13.56-21.736-19.888-29.392c0.208,0.048,0.416,0.096,0.624,0.144c1.032,0.256,2.072,0.496,3.088,0.792
			c1.768,0.52,3.504,1.112,5.232,1.744c0.792,0.288,1.584,0.56,2.368,0.872c1.832,0.72,3.632,1.52,5.416,2.368
			c0.632,0.304,1.272,0.6,1.896,0.912c1.84,0.928,3.648,1.928,5.424,2.992c0.52,0.312,1.04,0.624,1.552,0.944
			c1.816,1.136,3.592,2.336,5.336,3.6c0.432,0.32,0.864,0.64,1.288,0.96c1.752,1.328,3.456,2.72,5.12,4.184
			C437.608,313.176,440.888,316.44,443.832,320z M384,368v-32h22.672c4.432,9.832,7.784,20.648,8.904,32H384z M415.576,384
			c-1.12,11.352-4.472,22.168-8.904,32H384v-32H415.576z M384,320v-19.688c4.424,5.352,9.408,12.032,14.12,19.688H384z
			 M286.136,323.848c-0.032,0.056-0.08,0.088-0.112,0.144c-0.144,0.248-0.264,0.504-0.4,0.752c-0.68,1.184-1.328,2.384-1.952,3.6
			c-0.816,1.568-1.576,3.168-2.312,4.784c-0.632,1.392-1.248,2.776-1.824,4.2c-0.56,1.4-1.08,2.808-1.584,4.232
			c-0.136,0.384-0.296,0.752-0.424,1.136c-0.088,0.264-0.168,0.536-0.256,0.8c-0.352,1.072-0.688,2.152-1.008,3.24
			c-0.392,1.336-0.744,2.688-1.08,4.04c-0.152,0.592-0.28,1.192-0.416,1.784c-0.256,1.12-0.552,2.232-0.776,3.368
			c-0.048,0.248-0.08,0.496-0.12,0.736c-0.208,1.104-0.384,2.224-0.56,3.344c-0.216,1.352-0.408,2.712-0.568,4.072
			c-0.096,0.848-0.184,1.696-0.264,2.552c-0.04,0.456-0.136,0.896-0.168,1.352H40C26.768,368,16,357.232,16,344v-24h80h192.464
			c-0.064,0.096-0.104,0.2-0.168,0.296C287.552,321.464,286.832,322.648,286.136,323.848z M168.656,160
			c-5.472-9.424-8.656-20.336-8.656-32c0-35.288,28.712-64,64-64c35.288,0,64,28.712,64,64c0,35.288-28.712,64-64,64
			c-16.168,0-30.912-6.072-42.192-16H216v-16H168.656z M272,207.992c38.736,0,70.424,30.744,71.944,69.112
			c-0.728,0.24-1.424,0.544-2.136,0.792c-1.816,0.632-3.632,1.248-5.4,1.976c-1.328,0.552-2.608,1.184-3.912,1.784
			c-0.008,0-0.008,0-0.016,0.008c-0.248,0.112-0.496,0.224-0.744,0.336c-1.432,0.68-2.872,1.336-4.264,2.08
			c-1.28,0.68-2.52,1.432-3.768,2.168c-1.576,0.92-3.152,1.84-4.672,2.84c-1.224,0.808-2.4,1.672-3.592,2.528
			c-1.456,1.048-2.912,2.104-4.312,3.224c-1.152,0.92-2.264,1.896-3.376,2.864c-1.344,1.168-2.672,2.352-3.952,3.592
			c-0.864,0.832-1.712,1.68-2.544,2.544c-0.056,0.056-0.112,0.096-0.168,0.152H104v-24c0-39.704,32.296-72,72-72H272z M308.368,320
			c0.592-0.712,1.144-1.448,1.752-2.144c0.264-0.296,0.528-0.584,0.792-0.872c5.632-6.2,12.032-11.52,19.048-15.832
			c0.264-0.16,0.52-0.32,0.784-0.48c7.2-4.336,15.008-7.648,23.256-9.776c0.008,0,0.008-0.008,0.016-0.008
			c0.4-0.104,0.792-0.208,1.192-0.304c-6.328,7.664-13.592,17.632-19.904,29.416H308.368z M327.936,336.008
			c-3.848,9.92-6.584,20.68-7.512,32h-32.016V368c0.016-0.136,0.008-0.28,0.024-0.416c0.16-1.664,0.44-3.304,0.704-4.952
			c0.168-1.08,0.288-2.184,0.496-3.256c0.04-0.224,0.112-0.44,0.152-0.656c0.384-1.888,0.84-3.76,1.352-5.616
			c0.144-0.536,0.264-1.08,0.416-1.616c0.168-0.568,0.384-1.128,0.56-1.688c0.544-1.736,1.12-3.456,1.768-5.16
			c0.096-0.248,0.176-0.504,0.28-0.752c0.352-0.888,0.768-1.752,1.152-2.632c0.624-1.448,1.256-2.904,1.96-4.32
			c0.056-0.12,0.112-0.24,0.168-0.352c0.096-0.192,0.216-0.384,0.32-0.576H327.936z M297.704,416.008
			c-0.144-0.312-0.288-0.632-0.44-0.936c-1.056-2.12-2.056-4.272-2.936-6.464c-0.16-0.408-0.296-0.832-0.456-1.24
			c-0.84-2.184-1.616-4.392-2.28-6.64c-0.176-0.6-0.304-1.216-0.472-1.824c-0.56-2.064-1.088-4.136-1.496-6.232
			c-0.208-1.088-0.336-2.2-0.504-3.296c-0.256-1.648-0.536-3.296-0.704-4.952c-0.016-0.136-0.008-0.28-0.024-0.416h32.016
			c0.928,11.32,3.664,22.08,7.512,32H297.704z M308.168,432h27.136c6.312,11.784,13.568,21.752,19.904,29.416
			C336.496,456.856,320.072,446.392,308.168,432z M368,451.688c-4.424-5.352-9.408-12.032-14.12-19.688H368V451.688z M368,416
			h-22.672c-4.432-9.832-7.784-20.648-8.904-32H368V416z M368,368h-31.576c1.12-11.352,4.472-22.168,8.904-32H368V368z M368,320
			h-14.12c4.712-7.656,9.696-14.336,14.12-19.688V320z M365.616,272.528c-1.12,0.112-2.208,0.336-3.312,0.48
			c-0.88,0.12-1.76,0.248-2.632,0.384C356.264,227.952,318.296,192,272,192h-0.208C291.296,177.4,304,154.184,304,128
			c0-44.112-35.888-80-80-80c-26.92,0-50.728,13.408-65.232,33.856C156.352,76.08,150.648,72,144,72h-16c-8.824,0-16,7.176-16,16v32
			c0,8.824,7.176,16,16,16v32c0,4.424,3.576,8,8,8h24.152c4.576,6.064,9.968,11.448,16.048,16H176c-48.52,0-88,39.48-88,88v24H16V40
			c0-13.232,10.768-24,24-24h368c13.232,0,24,10.768,24,24v248.464c-0.968-0.624-1.976-1.168-2.96-1.752
			c-2.24-1.336-4.528-2.584-6.864-3.752c-1.328-0.664-2.648-1.328-4-1.928c-1.368-0.608-2.752-1.168-4.152-1.72
			c-1.464-0.584-2.952-1.12-4.44-1.632c-1.28-0.44-2.544-0.896-3.84-1.28c-2.64-0.792-5.32-1.488-8.024-2.064
			c-0.952-0.2-1.92-0.344-2.872-0.52c-2.176-0.408-4.368-0.744-6.576-1.008c-0.968-0.112-1.936-0.232-2.92-0.312
			C382.248,272.192,379.136,272,376,272C372.496,272,369.032,272.184,365.616,272.528z M144,136c0.136,0,0.264-0.04,0.4-0.04
			c0.84,8.472,3.04,16.544,6.328,24.04H144V136z M128,120V88h16l0.016,32H128z M384,432h14.12
			c-4.712,7.656-9.696,14.336-14.12,19.688V432z M396.792,461.416c6.328-7.664,13.592-17.632,19.904-29.416h27.136
			C431.928,446.392,415.504,456.856,396.792,461.416z M463.576,384.408c-0.16,1.664-0.44,3.304-0.696,4.936
			c-0.168,1.112-0.296,2.232-0.512,3.328c-0.408,2.096-0.936,4.16-1.496,6.216c-0.168,0.608-0.296,1.224-0.472,1.832
			c-0.664,2.232-1.44,4.44-2.272,6.616c-0.16,0.416-0.296,0.848-0.464,1.264c-0.88,2.192-1.872,4.336-2.928,6.456
			c-0.152,0.312-0.296,0.624-0.448,0.936h-30.216c3.848-9.92,6.584-20.68,7.512-32H463.6
			C463.584,384.128,463.592,384.272,463.576,384.408z"/>
	</g>
</g>
<g>
</g>
<g>
</g>
<g>
</g>
<g>
</g>
<g>
</g>
<g>
</g>
<g>
</g>
<g>
</g>
<g>
</g>
<g>
</g>
<g>
</g>
<g>
</g>
<g>
</g>
<g>
</g>
<g>
</g>
</svg>
