<?xml version="1.0" encoding="iso-8859-1"?>
<!-- Generator: Adobe Illustrator 18.0.0, SVG Export Plug-In . SVG Version: 6.00 Build 0)  -->
<!DOCTYPE svg PUBLIC "-//W3C//DTD SVG 1.1//EN" "http://www.w3.org/Graphics/SVG/1.1/DTD/svg11.dtd">
<svg version="1.1" id="Capa_1" xmlns="http://www.w3.org/2000/svg" xmlns:xlink="http://www.w3.org/1999/xlink" x="0px" y="0px"
	 viewBox="0 0 383.986 383.986" style="enable-background:new 0 0 383.986 383.986;" xml:space="preserve">
<g>
	<path d="M371.653,159h-4.163V82.759c0-4.142-3.358-7.5-7.5-7.5h-40.498c-4.142,0-7.5,3.358-7.5,7.5V159h-44.329
		c-4.142,0-7.5,3.358-7.5,7.5s3.358,7.5,7.5,7.5h96.49v9h-96.49c-4.142,0-7.5,3.358-7.5,7.5s3.358,7.5,7.5,7.5h73.58v14.99h-76.342
		c-4.142,0-7.5,3.358-7.5,7.5s3.358,7.5,7.5,7.5h76.342v148.496c0,4.142,3.358,7.5,7.5,7.5s7.5-3.358,7.5-7.5V198h15.41
		c4.142,0,7.5-3.358,7.5-7.5v-24C379.153,162.358,375.795,159,371.653,159z M326.992,159V90.259h25.498V159H326.992z"/>
	<path d="M119.096,212.99H42.753V198h73.58c4.142,0,7.5-3.358,7.5-7.5s-3.358-7.5-7.5-7.5h-96.5v-9h96.5c4.142,0,7.5-3.358,7.5-7.5
		s-3.358-7.5-7.5-7.5H72.005V82.759c0-4.142-3.358-7.5-7.5-7.5H24.007c-4.142,0-7.5,3.358-7.5,7.5V159h-4.173
		c-4.142,0-7.5,3.358-7.5,7.5v24c0,4.142,3.358,7.5,7.5,7.5h15.42v178.486c0,4.142,3.358,7.5,7.5,7.5s7.5-3.358,7.5-7.5V227.99
		h76.343c4.142,0,7.5-3.358,7.5-7.5S123.238,212.99,119.096,212.99z M31.507,90.259h25.498V159H31.507V90.259z"/>
	<path d="M240.163,254.992h-40.665v-8.999h16.952c20.013,0,36.295-16.282,36.295-36.295v-84.903
		c0-20.013-16.282-36.295-36.295-36.295h-48.905c-20.013,0-36.295,16.282-36.295,36.295v84.903
		c0,20.013,16.282,36.295,36.295,36.295h16.953v8.999h-40.666c-7.765,0-14.082,6.317-14.082,14.082
		c0,16.22,13.196,29.417,29.417,29.417h25.331v70.496h-25.499c-4.142,0-7.5,3.358-7.5,7.5s3.358,7.5,7.5,7.5h65.997
		c4.142,0,7.5-3.358,7.5-7.5s-3.358-7.5-7.5-7.5h-25.498V329.89h6.065c4.142,0,7.5-3.358,7.5-7.5s-3.358-7.5-7.5-7.5h-6.065v-16.399
		h25.331c16.22,0,29.417-13.196,29.417-29.417C254.245,261.31,247.927,254.992,240.163,254.992z M146.25,209.698v-84.903
		c0-11.742,9.553-21.295,21.295-21.295h48.905c11.742,0,21.295,9.553,21.295,21.295v84.903c0,11.742-9.553,21.295-21.295,21.295
		h-48.905C155.803,230.993,146.25,221.44,146.25,209.698z M224.828,283.491h-65.662c-7.641,0-13.913-5.975-14.388-13.499h94.437
		C238.741,277.516,232.469,283.491,224.828,283.491z"/>
	<path d="M51.186,136.762c-1.17-2.833-4.05-4.702-7.115-4.628c-3.157,0.076-5.99,2.204-6.952,5.207
		c-2.096,6.538,5.338,12.276,11.143,8.619C51.33,144.027,52.524,140.11,51.186,136.762
		C50.996,136.302,51.366,137.212,51.186,136.762z"/>
	<path d="M51.176,106.762c-1.205-3.019-4.435-4.921-7.658-4.593c-3.254,0.332-5.971,2.785-6.612,5.992
		c-1.26,6.304,5.854,11.228,11.317,7.829C51.282,114.087,52.584,110.095,51.176,106.762
		C50.996,106.312,51.366,107.212,51.176,106.762z"/>
	<path d="M346.666,136.762c-0.377-0.913-0.932-1.733-1.62-2.44c-2.732-2.656-7.089-2.919-10.062-0.491
		c-3.004,2.452-3.592,6.946-1.372,10.112c2.117,3.02,6.247,4.029,9.533,2.362C346.571,144.566,348.168,140.318,346.666,136.762
		C346.476,136.302,346.856,137.212,346.666,136.762z"/>
	<path d="M346.666,106.762c-0.385-0.913-0.929-1.729-1.62-2.44c-4.814-4.679-13.216-1.04-12.783,5.775
		c0.38,5.983,7.579,9.124,12.235,5.328C347.018,113.371,347.934,109.764,346.666,106.762
		C346.476,106.312,346.856,107.212,346.666,106.762z"/>
	<path d="M264.433,103.5c-4.142,0-7.5,3.358-7.5,7.5s3.358,7.5,7.5,7.5h25.81v9h-24.81c-4.142,0-7.5,3.358-7.5,7.5
		s3.358,7.5,7.5,7.5h32.31c4.142,0,7.5-3.358,7.5-7.5V7.5c0-4.142-3.358-7.5-7.5-7.5H86.253c-4.142,0-7.5,3.358-7.5,7.5V135
		c0,4.142,3.358,7.5,7.5,7.5h32.31c4.142,0,7.5-3.358,7.5-7.5s-3.358-7.5-7.5-7.5h-24.81v-9h25.81c4.142,0,7.5-3.358,7.5-7.5
		s-3.358-7.5-7.5-7.5h-25.81V15h196.49v88.5H264.433z"/>
</g>
<g>
</g>
<g>
</g>
<g>
</g>
<g>
</g>
<g>
</g>
<g>
</g>
<g>
</g>
<g>
</g>
<g>
</g>
<g>
</g>
<g>
</g>
<g>
</g>
<g>
</g>
<g>
</g>
<g>
</g>
</svg>
